<svg width="180" height="204" viewBox="0 0 180 204" fill="none" xmlns="http://www.w3.org/2000/svg">
<path d="M63.9877 92.6956C60.8583 90.8848 55.7274 90.8848 52.5951 92.6956L2.34904 121.727C-0.780408 123.538 -0.780408 126.499 2.34904 128.31L115.949 194.129C119.079 195.94 124.21 195.94 127.342 194.129L177.587 165.1C180.716 163.289 180.716 160.327 177.587 158.516L63.9877 92.6956Z" fill="#D4DBDF"/>
<path d="M177.587 165.1L127.343 194.129C124.213 195.94 119.084 195.94 115.95 194.129L2.34993 128.31C0.827881 127.43 0.0512091 126.279 0.00853485 125.12H0V132.918C0 134.112 0.783784 135.304 2.34993 136.211L115.95 202.031C119.08 203.842 124.211 203.842 127.343 202.031L177.587 173C179.152 172.095 179.939 170.903 179.939 169.71V161.814C179.943 163.004 179.154 164.193 177.587 165.1Z" fill="#95C4DF"/>
<path d="M172.655 155.657L111.017 191.272L2.84961 128.599L64.4883 92.9858L172.655 155.657Z" fill="url(#paint0_linear)"/>
<path d="M112.103 190.644L111.017 191.272L2.84961 128.599L3.93496 127.972L112.103 190.644Z" fill="url(#paint1_linear)"/>
<path d="M111.017 196.041L2.84961 133.368V128.599L111.017 191.272V196.041Z" fill="url(#paint2_linear)"/>
<path d="M116.156 129.117C129.491 136.814 129.491 149.295 116.156 156.997C102.82 164.7 81.207 164.694 67.8727 156.997C54.5384 149.3 54.5413 136.818 67.8727 129.117C81.2041 121.415 102.824 121.418 116.156 129.117Z" fill="url(#paint3_linear)"/>
<path d="M112.964 130.96C124.533 137.646 124.533 148.469 112.964 155.142C101.395 161.815 82.6378 161.828 71.0688 155.142C59.4998 148.457 59.5012 137.634 71.0688 130.96C82.6364 124.286 101.396 124.28 112.964 130.96Z" fill="#4CE7F2"/>
<path d="M111.78 131.643C122.698 137.945 122.698 148.164 111.78 154.468C100.863 160.772 83.1656 160.768 72.2496 154.468C61.3335 148.168 61.3335 137.945 72.2496 131.643C83.1656 125.341 100.865 125.34 111.78 131.643Z" fill="#D1FFFF"/>
<path d="M116.618 133.257C116.629 136.927 114.2 140.606 109.353 143.407C99.7119 148.973 84.1301 148.973 74.5512 143.407C69.793 140.642 67.4103 137.021 67.4004 133.397C67.4004 135.246 67.4103 139.986 67.4146 141.828C67.426 145.452 69.8086 149.073 74.5682 151.838C84.1458 157.404 99.7276 157.405 109.369 151.838C114.221 149.037 116.645 145.36 116.634 141.688C116.629 139.846 116.624 135.1 116.618 133.257Z" fill="url(#paint4_linear)"/>
<path d="M109.467 123.248C99.8877 117.681 84.3059 117.68 74.663 123.248C65.02 128.815 64.9716 137.839 74.5506 143.407C84.1295 148.974 99.7113 148.973 109.353 143.407C118.994 137.841 119.046 128.815 109.467 123.248Z" fill="#328CDE"/>
<path d="M140.192 2.35563C136.11 -0.00141263 132.411 -0.220474 129.74 1.33287L128.131 2.26601C127.328 2.73353 126.522 3.20105 125.713 3.66857C128.384 2.11665 132.084 2.33571 136.167 4.69276C144.275 9.37697 150.835 20.7326 150.81 30.0541C150.795 34.6871 149.161 37.946 146.524 39.478L150.544 37.1408C153.181 35.6088 154.811 32.3499 154.83 27.7184C154.862 18.3898 148.306 7.03984 140.192 2.35563Z" fill="#FFB710"/>
<path d="M136.172 4.69273C128.064 0.00852466 121.459 3.76813 121.434 13.0853C121.408 22.4025 127.961 33.7639 136.077 38.4481C144.192 43.1323 150.782 39.3784 150.815 30.054C150.848 20.7297 144.284 9.37695 136.172 4.69273Z" fill="#FFDE01"/>
<g style="mix-blend-mode:multiply">
<path d="M130.014 1.17784L125.994 3.51355C126.319 3.34563 126.657 3.20297 127.004 3.0868L131.024 0.751099C130.677 0.866457 130.339 1.00915 130.014 1.17784Z" fill="#ECA600"/>
<path d="M132.111 0.466571L128.09 2.8037C128.473 2.73583 128.86 2.69495 129.249 2.68136L133.269 0.344238C132.881 0.357748 132.494 0.398627 132.111 0.466571Z" fill="#ECA600"/>
<path d="M134.496 0.384033L130.475 2.71974C130.905 2.76098 131.332 2.82795 131.755 2.92031L135.776 0.58318C135.354 0.491263 134.926 0.424761 134.496 0.384033Z" fill="#ECA600"/>
<path d="M137.114 0.950195L133.094 3.28732C133.546 3.4381 134.007 3.61591 134.475 3.82502L138.496 1.48789C138.029 1.28116 137.568 1.10193 137.114 0.950195Z" fill="#ECA600"/>
<path d="M140.192 2.35569L139.918 2.19922L135.896 4.53635C135.988 4.58755 136.08 4.63876 136.172 4.69282C136.265 4.74687 136.356 4.7995 136.448 4.85498L140.468 2.51785L140.192 2.35569Z" fill="#ECA600"/>
<path d="M141.889 3.45374L137.867 5.79086C138.335 6.12277 138.795 6.4746 139.247 6.84634L143.268 4.51063C142.815 4.1332 142.355 3.7809 141.889 3.45374Z" fill="#ECA600"/>
<path d="M144.601 5.67712L140.58 8.01425C141.017 8.42392 141.444 8.85067 141.86 9.29448L145.882 6.95735C145.465 6.51496 145.037 6.0868 144.601 5.67712Z" fill="#ECA600"/>
<path d="M147.102 8.33289L143.082 10.67C143.477 11.1442 143.862 11.6307 144.236 12.1295L148.257 9.79235C147.884 9.29353 147.499 8.80704 147.102 8.33289Z" fill="#ECA600"/>
<path d="M149.342 11.3258L145.32 13.6615C145.668 14.1831 146.003 14.7151 146.325 15.2575L150.346 12.9204C150.024 12.3799 149.69 11.8483 149.342 11.3258Z" fill="#ECA600"/>
<path d="M148.079 18.5918L152.095 16.2561C151.835 15.6871 151.559 15.1243 151.265 14.5676L147.244 16.9033C147.536 17.4609 147.815 18.0238 148.079 18.5918Z" fill="#ECA600"/>
<path d="M149.435 22.0456L153.455 19.7084C153.265 19.1281 153.054 18.5491 152.828 17.973L148.807 20.3101C149.034 20.8867 149.244 21.4652 149.435 22.0456Z" fill="#ECA600"/>
<path d="M150.356 25.5305L154.376 23.1934C154.262 22.6159 154.128 22.036 153.973 21.4537L149.953 23.7951C150.108 24.3736 150.242 24.9521 150.356 25.5305Z" fill="#ECA600"/>
<path d="M150.783 28.9602L154.804 26.6231C154.776 26.0617 154.725 25.4927 154.652 24.9161L150.641 27.2575C150.709 27.8294 150.76 28.3984 150.783 28.9602Z" fill="#ECA600"/>
<path d="M150.805 30.623C150.786 31.1636 150.746 31.6828 150.684 32.1877L154.705 29.8506C154.766 29.3513 154.807 28.8307 154.824 28.2859L150.805 30.623Z" fill="#ECA600"/>
<path d="M150.059 34.9288L154.08 32.5917C154.229 32.1624 154.354 31.725 154.454 31.2816L150.434 33.6173C150.333 34.0611 150.208 34.4989 150.059 34.9288H150.059Z" fill="#ECA600"/>
<path d="M148.965 37.1579L152.985 34.8207C153.209 34.4858 153.411 34.1361 153.588 33.7738L149.568 36.1109C149.39 36.4726 149.188 36.8223 148.965 37.1579Z" fill="#ECA600"/>
<path d="M147.449 38.8392L151.471 36.5021C151.759 36.2668 152.029 36.0095 152.277 35.7325L148.257 38.0682C148.008 38.3453 147.738 38.6031 147.449 38.8392Z" fill="#ECA600"/>
<path d="M146.529 39.478L150.549 37.1409L150.572 37.1281L146.551 39.4652L146.529 39.478Z" fill="#ECA600"/>
</g>
<path opacity="0.5" d="M136.162 7.94317C129.612 4.1608 124.283 7.19637 124.262 14.7255C124.24 22.2547 129.533 31.4211 136.085 35.2092C142.637 38.9972 147.964 35.9545 147.986 28.4268C148.007 20.8991 142.714 11.7255 136.162 7.94317Z" fill="#FFB710"/>
<path d="M141.379 24.4154C140.715 23.2092 139.467 21.818 137.636 20.2419L135.975 18.7113C135.526 18.2679 135.152 17.7555 134.865 17.1935C134.641 16.7647 134.517 16.2904 134.502 15.8066C134.502 15.3476 134.637 15.0039 134.906 14.7753C135.175 14.5477 135.535 14.4908 135.986 14.5876C136.227 14.6411 136.457 14.7374 136.665 14.872C137.017 15.0736 137.347 15.312 137.649 15.5833C138.377 16.319 138.856 17.264 139.02 18.286L141.921 19.5662C141.728 18.2663 141.262 17.0222 140.552 15.9161C139.922 14.9404 139.132 14.0785 138.214 13.3671L138.222 10.5947L135.387 8.9574L135.379 11.7298C134.348 11.3505 133.499 11.34 132.831 11.6985C132.039 12.1262 131.641 12.992 131.636 14.2959C131.636 15.5828 131.983 16.8792 132.676 18.185C133.369 19.4908 134.465 20.7986 135.965 22.1082L137.626 23.5804C138.314 24.1836 138.808 24.7649 139.108 25.3244C139.393 25.8245 139.547 26.3879 139.558 26.9631C139.558 27.5586 139.377 27.973 139.015 28.2063C138.652 28.4396 138.185 28.4467 137.613 28.2277C137.431 28.1553 137.255 28.0692 137.086 27.9702C136.669 27.7331 136.286 27.4407 135.948 27.1011C135.501 26.6047 135.124 26.0495 134.828 25.451C134.497 24.8098 134.266 24.1213 134.145 23.4097L131.158 22.0157C131.501 24.9655 133.002 27.6579 135.332 29.4994L135.323 32.1565L138.16 33.7938V31.0783C139.386 31.5079 140.365 31.5036 141.097 31.0655C141.938 30.5629 142.36 29.5928 142.363 28.1551C142.362 26.8446 142.023 25.5565 141.379 24.4154Z" fill="#FFB710"/>
<path d="M140.814 24.7611C140.15 23.5529 138.903 22.1618 137.072 20.5876L135.41 19.0555C134.962 18.6118 134.588 18.0988 134.302 17.5363C134.077 17.1078 133.952 16.6334 133.938 16.1494C133.938 15.6885 134.08 15.3457 134.342 15.1181C134.604 14.8905 134.971 14.8336 135.422 14.9304C135.663 14.9826 135.893 15.079 136.1 15.2149C136.453 15.4156 136.783 15.6541 137.085 15.9261C137.813 16.6618 138.292 17.6068 138.456 18.6288L141.356 19.909C141.165 18.6079 140.699 17.3626 139.988 16.2561C139.358 15.2799 138.567 14.4175 137.649 13.7056L137.658 10.9332L134.823 9.30164L134.814 12.0755C133.783 11.6961 132.935 11.6852 132.268 12.0427C131.474 12.4723 131.075 13.3386 131.072 14.6416C131.072 15.9275 131.418 17.2234 132.112 18.5292C132.805 19.8351 133.901 21.1428 135.4 22.4524L137.062 23.9247C137.749 24.5297 138.243 25.1115 138.544 25.6701C138.828 26.1696 138.983 26.7325 138.993 27.3073C138.993 27.9038 138.812 28.3187 138.45 28.552C138.088 28.7853 137.621 28.7924 137.049 28.5733C136.867 28.5001 136.691 28.4136 136.521 28.3144C136.105 28.0778 135.722 27.7859 135.383 27.4467C134.937 26.9498 134.561 26.3947 134.264 25.7967C133.933 25.1553 133.702 24.4668 133.581 23.7554L130.594 22.3614C130.936 25.3106 132.438 28.0025 134.767 29.8436V32.5022L137.602 34.1381L137.609 31.424C138.837 31.8536 139.817 31.8488 140.547 31.4097C141.388 30.909 141.81 29.9394 141.813 28.5008C141.807 27.1891 141.463 25.9011 140.814 24.7611Z" fill="#FFDE01"/>
<path d="M136.65 34.8577C130.098 31.0768 124.805 21.9132 124.827 14.3741C124.836 10.8663 126 8.33425 127.902 7.01135C125.667 8.20339 124.273 10.8762 124.262 14.7197C124.24 22.2475 129.533 31.4153 136.085 35.2034C139.583 37.2233 142.733 37.2973 144.912 35.7838C142.77 36.926 139.856 36.7098 136.65 34.8577Z" fill="#FFB710"/>
<path d="M116.947 76.569C111.322 73.0654 100.227 66.4281 92.1673 61.7439C87.2527 58.8876 84.6012 57.4182 84.5528 57.4978L81.6367 62.3997C81.6851 62.32 84.3394 63.7909 89.2498 66.6458C97.311 71.33 108.405 77.9672 114.029 81.4708C116.226 82.8378 117.264 83.5263 117.233 83.5775L120.149 78.6756C120.18 78.623 119.143 77.9345 116.947 76.569Z" fill="#FFB710"/>
<path d="M114.028 81.4695C108.403 77.9659 97.3096 71.3287 89.2484 66.6445C81.1873 61.9602 79.2143 61.0029 84.8388 64.5107C90.4632 68.0186 101.564 74.6473 109.618 79.3315C117.672 84.0157 119.654 84.973 114.028 81.4695Z" fill="#FFDE01"/>
<g style="mix-blend-mode:multiply">
<path d="M120.076 78.5974L117.16 83.5007C117.209 83.5391 117.233 83.5647 117.231 83.5747L120.149 78.6728C120.15 78.6614 120.126 78.6372 120.076 78.5974Z" fill="#ECA600"/>
<path d="M119.488 78.1792L116.572 83.0825C116.715 83.182 116.847 83.266 116.946 83.3357L119.862 78.4338C119.756 78.3641 119.631 78.2759 119.488 78.1792Z" fill="#ECA600"/>
<path d="M118.269 77.3969L115.352 82.3001C115.606 82.4609 115.834 82.6074 116.036 82.7368L118.953 77.835C118.751 77.707 118.524 77.5647 118.269 77.3969Z" fill="#ECA600"/>
<path d="M116.946 76.569L116.431 76.2489L113.514 81.1493L114.029 81.4694L114.509 81.7695L117.427 76.8677L116.946 76.569Z" fill="#ECA600"/>
<path d="M114.109 74.8165L111.191 79.7198L112.403 80.4623L115.319 75.5605L114.109 74.8165Z" fill="#ECA600"/>
<path d="M111.43 73.1864L108.514 78.0883L109.891 78.9261L112.802 74.0228L111.43 73.1864Z" fill="#ECA600"/>
<path d="M108.481 71.4041L105.564 76.3059L107.068 77.2134L109.984 72.3116C109.493 72.0129 108.992 71.7104 108.481 71.4041Z" fill="#ECA600"/>
<path d="M105.346 69.5234L102.43 74.4267L104.014 75.3755L106.93 70.4722L105.346 69.5234Z" fill="#ECA600"/>
<path d="M102.111 67.5946L99.1953 72.4979L100.82 73.4637L103.736 68.5619L102.111 67.5946Z" fill="#ECA600"/>
<path d="M98.8614 65.67L95.9453 70.5719L97.5655 71.5321L100.482 66.6288L98.8614 65.67Z" fill="#ECA600"/>
<path d="M95.687 63.7994L92.7695 68.7013L94.3442 69.6259L97.2603 64.724L95.687 63.7994Z" fill="#ECA600"/>
<path d="M92.6655 62.0327L89.748 66.936C90.2345 67.2205 90.7296 67.505 91.2345 67.8023L94.1506 62.899L92.6655 62.0327Z" fill="#ECA600"/>
<path d="M89.9699 60.4708L87.0566 65.3727L88.3369 66.1152L91.2529 61.2134C90.8049 60.9516 90.3767 60.7055 89.9699 60.4708Z" fill="#ECA600"/>
<path d="M87.795 59.2277L84.8789 64.1295L85.8988 64.7113L88.8149 59.808C88.4536 59.6022 88.1136 59.4088 87.795 59.2277Z" fill="#ECA600"/>
<path d="M86.1636 58.313L83.2461 63.2148C83.4723 63.34 83.7212 63.478 83.9943 63.6316L86.9132 58.7284C86.6387 58.5761 86.3898 58.4367 86.1636 58.313Z" fill="#ECA600"/>
<path d="M85.0899 57.734L82.1738 62.6359L82.639 62.8834L85.5565 57.9815C85.3772 57.8848 85.2222 57.8023 85.0899 57.734Z" fill="#ECA600"/>
<path d="M84.5894 57.4993L81.6719 62.4011C81.7331 62.4219 81.793 62.4467 81.8511 62.4751L84.7672 57.5732C84.7097 57.5445 84.6503 57.5198 84.5894 57.4993Z" fill="#ECA600"/>
</g>
<path d="M108.819 102.875C101.113 104.367 88.3351 101.78 80.2725 97.0954C75.6466 94.4069 73.5868 91.6117 74.116 89.4368L72.8486 94.5876C72.3123 96.7625 74.3777 99.5577 79.005 102.246C87.0548 106.93 99.8386 109.518 107.538 108.026C110.822 107.39 112.659 106.115 113.051 104.501C113.474 102.783 113.896 101.066 114.319 99.35C113.927 100.965 112.09 102.239 108.819 102.875Z" fill="#FFB710"/>
<path d="M108.169 91.6914C100.109 87.0072 87.3279 84.4197 79.6237 85.9119C71.9196 87.404 72.2084 92.4111 80.2681 97.0954C88.3279 101.78 101.109 104.367 108.82 102.875C116.531 101.383 116.23 96.3756 108.169 91.6914Z" fill="#FFDE01"/>
<g style="mix-blend-mode:multiply">
<path d="M113.81 100.423L112.543 105.573C112.687 105.38 112.809 105.17 112.906 104.949L114.175 99.7981C114.077 100.019 113.955 100.229 113.81 100.423Z" fill="#ECA600"/>
<path d="M112.58 101.524L111.312 106.674C111.56 106.519 111.793 106.344 112.011 106.149L113.278 101C113.061 101.194 112.827 101.369 112.58 101.524Z" fill="#ECA600"/>
<path d="M110.681 102.396L109.412 107.546C109.764 107.431 110.109 107.295 110.446 107.141L111.715 101.99C111.378 102.144 111.033 102.279 110.681 102.396Z" fill="#ECA600"/>
<path d="M108.818 102.875C108.589 102.919 108.356 102.96 108.118 102.997L106.844 108.148C107.081 108.111 107.315 108.07 107.544 108.026C107.773 107.982 107.995 107.933 108.208 107.883L109.477 102.733C109.262 102.782 109.041 102.831 108.818 102.875Z" fill="#ECA600"/>
<path d="M103.811 108.433C104.345 108.415 104.867 108.382 105.375 108.334L106.644 103.184C106.138 103.231 105.616 103.263 105.079 103.282L103.811 108.433Z" fill="#ECA600"/>
<path d="M100.471 108.386C101.047 108.419 101.616 108.439 102.178 108.445L103.447 103.294C102.889 103.288 102.32 103.268 101.74 103.235L100.471 108.386Z" fill="#ECA600"/>
<path d="M96.9199 108.044C97.5231 108.126 98.121 108.195 98.7137 108.252L99.9825 103.101C99.3908 103.044 98.7928 102.975 98.1888 102.893L96.9199 108.044Z" fill="#ECA600"/>
<path d="M93.2617 107.423C93.8753 107.549 94.4874 107.664 95.0981 107.768L96.367 102.617C95.7563 102.513 95.1441 102.398 94.5306 102.272L93.2617 107.423Z" fill="#ECA600"/>
<path d="M89.5918 106.541C90.1992 106.708 90.8109 106.866 91.4225 107.013L92.6914 101.862C92.0788 101.716 91.4685 101.559 90.8606 101.39L89.5918 106.541Z" fill="#ECA600"/>
<path d="M86.0098 105.42C86.5944 105.624 87.1862 105.822 87.785 106.009L89.0524 100.858C88.455 100.668 87.8637 100.471 87.2786 100.267L86.0098 105.42Z" fill="#ECA600"/>
<path d="M82.6133 104.075C83.1595 104.317 83.7157 104.55 84.2818 104.774L85.5507 99.6217C84.9817 99.3984 84.4269 99.1665 83.8821 98.9247L82.6133 104.075Z" fill="#ECA600"/>
<path d="M79.5 102.532C79.9912 102.805 80.4962 103.07 81.0149 103.327L82.2838 98.1765C81.7641 97.9195 81.2591 97.6545 80.7688 97.3813L79.5 102.532Z" fill="#ECA600"/>
<path d="M76.8477 100.861C77.2365 101.139 77.6518 101.419 78.0937 101.698L79.3612 96.5477C78.9183 96.2689 78.5034 95.9896 78.1165 95.7098L76.8477 100.861Z" fill="#ECA600"/>
<path d="M76.119 94.0399L74.8516 99.1864C75.1285 99.4624 75.4334 99.7398 75.7662 100.019L77.0351 94.8678C76.7022 94.5918 76.3968 94.3159 76.119 94.0399Z" fill="#ECA600"/>
<path d="M74.7864 92.4141L73.5176 97.5648C73.6956 97.8451 73.8908 98.114 74.1022 98.37L75.3711 93.2192C75.16 92.9629 74.9648 92.6941 74.7864 92.4141Z" fill="#ECA600"/>
<path d="M74.1106 90.8693L72.8418 96.02C72.9023 96.2806 72.9871 96.5349 73.095 96.7796L74.3624 91.6289C74.255 91.3841 74.1707 91.1298 74.1106 90.8693V90.8693Z" fill="#ECA600"/>
<path d="M74.1097 89.4453L72.8409 94.5961C72.7864 94.8239 72.7592 95.0574 72.7598 95.2917L74.0286 90.1395C74.0268 89.9056 74.0541 89.6725 74.1097 89.4453Z" fill="#ECA600"/>
</g>
<path opacity="0.5" d="M105.482 92.2163C98.974 88.4339 88.6539 86.3443 82.4377 87.5491C76.2215 88.7539 76.4491 92.7966 82.9584 96.579C89.4676 100.361 99.7862 102.451 106.002 101.246C112.219 100.041 111.991 95.9929 105.482 92.2163Z" fill="#FFB710"/>
<path d="M82.0144 88.1579C88.2348 86.953 98.5549 89.0426 105.058 92.825C109.132 95.192 110.748 97.6614 109.861 99.4722C111.514 97.633 110.033 94.8577 105.478 92.2176C98.9703 88.4352 88.6502 86.3456 82.434 87.5505C80.1068 88.0014 78.6829 88.8492 78.1523 89.9331C78.8622 89.1379 80.1467 88.5177 82.0144 88.1579Z" fill="#FFB710"/>
<path d="M102.56 94.3941L104.757 93.9673L101.94 92.3315L99.6963 92.7582C98.3156 92.1161 96.8642 91.6386 95.372 91.3358C93.7257 91.0105 92.3089 90.9631 91.1216 91.1935C90.0576 91.4002 89.5161 91.7611 89.4971 92.276C89.4782 92.7909 90.1671 93.6245 91.564 94.7767L92.7432 95.8279C93.0533 96.1494 93.1799 96.4111 93.1244 96.6103C93.069 96.8094 92.867 96.9432 92.5185 97.01C92.0395 97.0829 91.5516 97.0727 91.0761 96.9801C90.4774 96.8809 89.8919 96.7144 89.3307 96.4837C89.0681 96.3801 88.8145 96.255 88.5725 96.1096C88.2669 95.9396 87.9779 95.7415 87.7091 95.5178C87.2482 95.037 87.3179 94.6705 87.9182 94.4183L84.7119 92.8066C83.9239 93.1129 83.592 93.5302 83.7162 94.0584C83.8215 94.5022 84.271 95.0185 85.0533 95.6018L82.7617 96.0456L85.5782 97.6828L87.8698 97.239C89.0582 97.7949 90.3076 98.2098 91.5924 98.4752C93.1098 98.79 94.407 98.8431 95.4843 98.6345C96.5616 98.4258 97.1183 98.0498 97.1543 97.5065C97.2046 96.9574 96.6697 96.2153 95.5498 95.2803L94.3208 94.2376C93.8087 93.808 93.5616 93.4761 93.5796 93.2419C93.5977 93.0076 93.8267 92.8469 94.2667 92.7597C94.8722 92.6676 95.4895 92.6883 96.0875 92.8208C96.8056 92.9571 97.5034 93.1842 98.1643 93.4965C98.3549 93.5875 98.5455 93.69 98.7247 93.7938C99.0711 93.9807 99.3911 94.2126 99.6764 94.4837C99.9168 94.7554 100.012 95.0242 99.9609 95.2917C99.9097 95.5591 99.6877 95.7796 99.2838 95.9517L102.538 97.6217C103.604 97.2423 104.082 96.744 103.971 96.1267C103.879 95.6127 103.408 95.0351 102.56 94.3941Z" fill="#FFB710"/>
<path d="M103.015 93.7155L105.212 93.2888L102.395 91.6515L100.152 92.0854C98.7712 91.4434 97.3198 90.966 95.8276 90.6629C94.1822 90.3376 92.7655 90.2902 91.5772 90.5207C90.5132 90.7264 89.9717 91.0873 89.9527 91.6032C89.9338 92.119 90.6218 92.9479 92.0168 94.0896L93.196 95.1409C93.5061 95.4633 93.6332 95.7241 93.5772 95.9232C93.5213 96.1224 93.3193 96.2556 92.9712 96.3229C92.4922 96.3951 92.0044 96.385 91.5288 96.2931C90.9317 96.1956 90.3476 96.0305 89.7877 95.8009C89.5251 95.6973 89.2715 95.5722 89.0296 95.4268C88.724 95.2568 88.4349 95.0587 88.1661 94.835C87.7052 94.3542 87.7749 93.9877 88.3752 93.7355L85.169 92.1238C84.3809 92.4301 84.049 92.8474 84.1732 93.3756C84.2785 93.8194 84.728 94.3357 85.5104 94.9189L83.2188 95.3628L86.0353 97L88.3354 96.5605C89.5209 97.1167 90.7674 97.5325 92.0495 97.7995C93.5668 98.1143 94.8641 98.1674 95.9414 97.9588C97.0187 97.7501 97.5758 97.3708 97.6128 96.8208C97.6621 96.2717 97.1272 95.5297 96.0082 94.5946L94.7792 93.552C94.2671 93.1224 94.0201 92.7905 94.0381 92.5562C94.0561 92.322 94.2851 92.1612 94.7252 92.074C95.3306 91.9812 95.9481 92.0019 96.5459 92.1352C97.2635 92.2716 97.9609 92.4986 98.6213 92.8108C98.8119 92.9019 99.0025 93.0043 99.1818 93.1081C99.5281 93.295 99.8481 93.527 100.133 93.798C100.374 94.0697 100.469 94.3386 100.418 94.606C100.367 94.8734 100.145 95.0939 99.7422 95.266L102.987 96.9446C104.053 96.5652 104.53 96.0669 104.419 95.4495C104.33 94.9346 103.862 94.3566 103.015 93.7155Z" fill="#FFDE01"/>
<path d="M130.054 53.3826C127.815 45.6927 119.465 35.6586 111.405 30.9758C106.827 28.3143 103.327 27.9502 101.564 29.5405L99.0351 31.8264L97.6738 33.0583C99.4334 31.4665 102.937 31.8293 107.512 34.4907C115.573 39.1749 123.923 49.2076 126.16 56.8975C127.128 60.2219 126.796 62.5647 125.456 63.7752L129.347 60.2589C130.689 59.0483 131.021 56.7055 130.054 53.3826Z" fill="#FFB710"/>
<path d="M126.163 56.8976C123.925 49.2077 115.576 39.175 107.514 34.4907C99.4532 29.8065 94.7334 32.2432 96.9724 39.9346C99.2114 47.6259 107.561 57.6586 115.622 62.3442C123.684 67.0299 128.402 64.5903 126.163 56.8976Z" fill="#FFDE01"/>
<g style="mix-blend-mode:multiply">
<path d="M125.855 63.3472L129.746 59.8308C129.903 59.6259 130.038 59.4046 130.148 59.1708L126.258 62.6871C126.148 62.921 126.013 63.1422 125.855 63.3472Z" fill="#ECA600"/>
<path d="M126.537 61.9018L130.426 58.3855C130.503 58.0882 130.555 57.7852 130.583 57.4794L126.694 60.9957C126.666 61.3014 126.613 61.6044 126.537 61.9018H126.537Z" fill="#ECA600"/>
<path d="M126.712 59.9702L130.602 56.4524C130.585 56.0713 130.547 55.6915 130.489 55.3145L126.6 58.8265C126.658 59.2054 126.696 59.5872 126.712 59.9702Z" fill="#ECA600"/>
<path d="M126.164 56.8977C126.231 57.1262 126.292 57.35 126.345 57.5691L130.235 54.0527C130.181 53.8337 130.121 53.6103 130.054 53.3813C129.988 53.1523 129.912 52.9233 129.838 52.6914L125.949 56.2078C126.026 56.4401 126.098 56.6701 126.164 56.8977Z" fill="#ECA600"/>
<path d="M128.674 49.8265L124.783 53.3429C125.016 53.8303 125.23 54.3135 125.425 54.7924L129.315 51.276C129.117 50.799 128.903 50.3159 128.674 49.8265Z" fill="#ECA600"/>
<path d="M127.075 46.8635L123.188 50.3799C123.488 50.8777 123.771 51.3756 124.041 51.8692L127.931 48.3529C127.658 47.8593 127.375 47.3614 127.075 46.8635Z" fill="#ECA600"/>
<path d="M125.101 43.8749L121.211 47.3912C121.568 47.8863 121.911 48.387 122.241 48.8834L126.13 45.3671C125.801 44.8678 125.463 44.3713 125.101 43.8749Z" fill="#ECA600"/>
<path d="M122.819 40.9388L118.93 44.4552C119.331 44.936 119.722 45.4215 120.103 45.9118L123.994 42.3955C123.614 41.9052 123.223 41.4196 122.819 40.9388Z" fill="#ECA600"/>
<path d="M120.295 38.1323L116.406 41.6487C116.842 42.101 117.272 42.5619 117.695 43.0313L121.584 39.515C121.163 39.0474 120.733 38.5866 120.295 38.1323Z" fill="#ECA600"/>
<path d="M117.59 35.5349L113.701 39.0513C114.164 39.4619 114.621 39.8848 115.071 40.3201L118.961 36.8038C118.511 36.3704 118.054 35.9474 117.59 35.5349Z" fill="#ECA600"/>
<path d="M114.773 33.2206L110.883 36.7398C111.357 37.0982 111.831 37.4705 112.305 37.8564L116.196 34.3401C115.723 33.9484 115.249 33.5753 114.773 33.2206Z" fill="#ECA600"/>
<path d="M111.902 31.2689L108.012 34.7853C108.491 35.0774 108.97 35.386 109.45 35.7113L113.339 32.195C112.861 31.8692 112.376 31.5591 111.902 31.2689Z" fill="#ECA600"/>
<path d="M109.131 29.7981L105.24 33.3145C105.676 33.5108 106.126 33.7312 106.59 33.9759L110.481 30.4595C110.019 30.2149 109.569 29.9944 109.131 29.7981Z" fill="#ECA600"/>
<path d="M106.668 28.9161L102.777 32.4339C103.157 32.5335 103.554 32.6572 103.968 32.8052L107.858 29.2874C107.447 29.1338 107.05 29.0114 106.668 28.9161Z" fill="#ECA600"/>
<path d="M104.553 28.5933L100.662 32.1096C101 32.1182 101.338 32.1481 101.672 32.1992L105.563 28.6829C105.228 28.6311 104.891 28.6012 104.553 28.5933Z" fill="#ECA600"/>
<path d="M102.826 28.8236L98.9355 32.34C99.2006 32.2546 99.473 32.1937 99.7492 32.1579L103.638 28.6401C103.363 28.6772 103.091 28.7386 102.826 28.8236Z" fill="#ECA600"/>
<path d="M101.564 29.5405C100.267 30.7146 98.9702 31.8872 97.6738 33.0583C97.8429 32.9055 98.0274 32.7705 98.2243 32.6558L102.115 29.1394C101.918 29.2542 101.734 29.3886 101.564 29.5405Z" fill="#ECA600"/>
</g>
<path opacity="0.5" d="M123.543 55.5392C121.732 49.3201 114.99 41.212 108.481 37.4296C101.971 33.6473 98.1634 35.6231 99.9742 41.8393C101.785 48.0555 108.535 56.1708 115.037 59.9517C121.539 63.7326 125.354 61.7597 123.543 55.5392Z" fill="#FFB710"/>
<path d="M115.59 59.5192C109.081 55.7369 102.338 47.6288 100.528 41.4083C99.7737 38.818 99.9956 36.9659 100.98 35.9559C99.5418 36.8009 99.0938 38.8208 99.9743 41.8421C101.784 48.0612 108.535 56.1707 115.037 59.9517C118.833 62.1593 121.711 62.4054 123.091 60.9929C121.569 61.8862 118.937 61.4638 115.59 59.5192Z" fill="#FFB710"/>
<path d="M118.286 54.9858C117.978 53.9218 117.394 52.8582 116.535 51.7952C115.676 50.7321 114.274 49.4595 112.328 47.9772L110.538 46.5448C110.052 46.138 109.612 45.6802 109.224 45.1792C108.94 44.8263 108.721 44.4261 108.577 43.9972C108.466 43.6174 108.497 43.3457 108.672 43.1849C108.847 43.0242 109.137 43.0085 109.547 43.138C109.775 43.2107 109.993 43.3131 110.195 43.4424C110.548 43.646 110.886 43.8747 111.207 44.1266C111.981 44.7744 112.605 45.5837 113.033 46.4979L115.82 47.835C115.302 46.6839 114.609 45.62 113.766 44.6814C112.984 43.8061 112.107 43.0207 111.151 42.34L110.484 40.0498L107.668 38.4182L108.335 40.7084C107.36 40.2916 106.628 40.1963 106.153 40.4239C105.584 40.6989 105.454 41.3746 105.763 42.4509C106.072 43.5273 106.683 44.6335 107.595 45.7696C108.506 46.918 109.76 48.1086 111.355 49.3414L113.13 50.724C113.753 51.1869 114.32 51.7212 114.818 52.3158C115.167 52.7269 115.432 53.2018 115.599 53.7141C115.742 54.2063 115.689 54.5306 115.439 54.6871C115.187 54.845 114.791 54.8037 114.248 54.5647C114.09 54.4936 113.915 54.4026 113.736 54.2987C113.318 54.0574 112.924 53.7789 112.557 53.4666C112.06 53.0177 111.606 52.5239 111.2 51.9915C110.774 51.4489 110.413 50.8595 110.121 50.2347L107.228 48.7838C107.832 50.2109 108.657 51.5339 109.673 52.7041C110.545 53.7087 111.529 54.6098 112.606 55.3898L113.245 57.5861L116.062 59.2233L115.409 56.9801C116.559 57.4543 117.393 57.5491 117.912 57.2646C118.508 56.9336 118.632 56.174 118.286 54.9858Z" fill="#FFB710"/>
<path d="M117.818 55.3471C117.508 54.2831 116.923 53.2195 116.065 52.1565C115.207 51.0934 113.805 49.8184 111.859 48.3314L110.07 46.9004C109.583 46.4936 109.142 46.0358 108.754 45.5348C108.471 45.1813 108.253 44.7813 108.108 44.3528C107.997 43.9734 108.028 43.7027 108.202 43.5405C108.375 43.3784 108.667 43.3627 109.078 43.4936C109.307 43.5657 109.525 43.6681 109.727 43.798C110.08 44.002 110.417 44.2306 110.738 44.4822C111.512 45.1298 112.135 45.9386 112.563 46.8521L115.35 48.202C114.833 47.0512 114.141 45.9877 113.297 45.0498C112.515 44.1761 111.638 43.3927 110.681 42.7141L110.015 40.4239L107.199 38.7866L107.865 41.0782C106.889 40.6515 106.164 40.5552 105.69 40.7895C105.121 41.0635 104.991 41.7392 105.3 42.8165C105.61 43.8786 106.221 44.9848 107.132 46.1351C108.043 47.2854 109.297 48.476 110.892 49.707L112.66 51.0896C113.282 51.5524 113.849 52.0861 114.348 52.6799C114.697 53.0916 114.962 53.5669 115.129 54.0797C115.272 54.5718 115.219 54.8962 114.969 55.0526C114.718 55.2091 114.321 55.1683 113.778 54.9303C113.603 54.8505 113.432 54.7617 113.266 54.6643C112.848 54.423 112.453 54.1445 112.085 53.8321C111.588 53.3834 111.134 52.8891 110.73 52.3556C110.304 51.8137 109.942 51.2247 109.65 50.6003L106.758 49.1479C107.362 50.5741 108.187 51.8962 109.203 53.0654C110.075 54.0696 111.059 54.9707 112.136 55.7511L112.777 57.9474L115.593 59.5846L114.936 57.3414C116.086 57.8155 116.921 57.9104 117.439 57.6259C118.038 57.2949 118.164 56.5353 117.818 55.3471Z" fill="#FFDE01"/>
<path d="M112.607 127.88C112.616 130.97 110.576 134.064 106.49 136.415C98.3824 141.1 85.2657 141.098 77.206 136.415C73.2003 134.088 71.196 131.043 71.1875 127.993L71.2003 132.643C71.2088 135.694 73.2131 138.74 77.2188 141.067C85.2785 145.751 98.3909 145.751 106.503 141.067C110.587 138.71 112.62 135.616 112.62 132.532L112.607 127.88Z" fill="#FFB710"/>
<path d="M106.588 119.458C98.5269 114.774 85.4159 114.774 77.3021 119.458C69.1883 124.142 69.1471 131.737 77.2082 136.421C85.2694 141.105 98.3789 141.107 106.493 136.421C114.607 131.735 114.651 124.142 106.588 119.458Z" fill="#FFDE01"/>
<g style="mix-blend-mode:multiply">
<path d="M112.607 127.88C112.607 128.238 112.58 128.595 112.527 128.949L112.54 133.599C112.593 133.246 112.62 132.889 112.619 132.532L112.607 127.88Z" fill="#ECA600"/>
<path d="M111.859 131.105L111.872 135.757C112.038 135.41 112.178 135.051 112.292 134.684L112.279 130.034C112.165 130.401 112.025 130.759 111.859 131.105Z" fill="#ECA600"/>
<path d="M110.504 133.183L110.518 137.834C110.793 137.509 111.047 137.168 111.279 136.812L111.266 132.162C111.033 132.517 110.778 132.858 110.504 133.183H110.504Z" fill="#ECA600"/>
<path d="M108.469 135.105L108.482 139.755C108.865 139.46 109.234 139.146 109.585 138.814L109.571 134.164C109.22 134.496 108.852 134.81 108.469 135.105H108.469Z" fill="#ECA600"/>
<path d="M106.493 136.422C106.253 136.565 106.007 136.696 105.758 136.826L105.771 141.477C106.021 141.348 106.266 141.213 106.506 141.073C106.746 140.932 106.98 140.79 107.207 140.646L107.195 135.996C106.97 136.141 106.734 136.283 106.493 136.422Z" fill="#ECA600"/>
<path d="M102.582 138.198L102.596 142.848C103.152 142.653 103.697 142.441 104.226 142.212L104.214 137.562C103.684 137.791 103.14 138.001 102.582 138.198Z" fill="#ECA600"/>
<path d="M99.1133 139.173L99.1261 143.824C99.7235 143.695 100.312 143.549 100.891 143.385L100.879 138.735C100.3 138.898 99.7117 139.044 99.1133 139.173Z" fill="#ECA600"/>
<path d="M95.4473 139.752L95.4601 144.403C96.0817 144.339 96.7005 144.26 97.3093 144.162L97.2951 139.512C96.6843 139.609 96.0684 139.689 95.4473 139.752Z" fill="#ECA600"/>
<path d="M91.6855 139.935L91.6983 144.585C92.3271 144.585 92.9572 144.573 93.5846 144.543L93.5703 139.893C92.9425 139.924 92.3143 139.937 91.6855 139.935Z" fill="#ECA600"/>
<path d="M87.9297 139.727L87.9425 144.377C88.5617 144.445 89.1853 144.497 89.813 144.533L89.8002 139.883C89.1725 139.844 88.5489 139.792 87.9297 139.727Z" fill="#ECA600"/>
<path d="M84.2812 139.112L84.2941 143.761C84.8886 143.903 85.4904 144.014 86.0992 144.117L86.0864 139.465C85.4776 139.365 84.8758 139.247 84.2812 139.112Z" fill="#ECA600"/>
<path d="M80.8418 138.105L80.8546 142.757C81.4046 142.956 81.967 143.14 82.5417 143.309L82.5289 138.659C81.9542 138.491 81.3918 138.306 80.8418 138.105Z" fill="#ECA600"/>
<path d="M77.709 136.704L77.7232 141.354C78.2144 141.62 78.7213 141.87 79.2438 142.104L79.231 137.451C78.7076 137.22 78.2002 136.971 77.709 136.704Z" fill="#ECA600"/>
<path d="M75.0684 134.963L75.0812 139.613C75.4605 139.921 75.873 140.221 76.3187 140.514L76.3045 135.862C75.8654 135.572 75.4534 135.272 75.0684 134.963Z" fill="#ECA600"/>
<path d="M73.1055 133.021L73.1197 137.671C73.3979 138.021 73.6967 138.353 74.0144 138.667L74.0016 134.017C73.6845 133.702 73.3853 133.37 73.1055 133.021V133.021Z" fill="#ECA600"/>
<path d="M71.834 130.94L71.8468 135.592C72.0067 135.955 72.1916 136.308 72.4001 136.646L72.3859 131.996C72.1784 131.657 71.994 131.304 71.834 130.94L71.834 130.94Z" fill="#ECA600"/>
<path d="M71.2363 128.774L71.2491 133.424C71.2919 133.791 71.3627 134.154 71.4611 134.511L71.4469 129.861C71.3491 129.504 71.2787 129.141 71.2363 128.774Z" fill="#ECA600"/>
</g>
<path opacity="0.5" d="M91.9198 137.63C101.155 137.605 108.629 133.247 108.614 127.898C108.599 122.549 101.1 118.233 91.8657 118.259C82.6308 118.285 75.1566 122.642 75.1716 127.992C75.1865 133.341 82.6849 137.656 91.9198 137.63Z" fill="#FFB710"/>
<path d="M80.1141 121.842C86.666 118.06 97.2521 118.06 103.761 121.842C106.835 123.629 108.455 125.94 108.606 128.28C108.777 125.69 107.164 123.07 103.761 121.091C97.2521 117.309 86.666 117.309 80.1141 121.091C76.6589 123.083 75.0174 125.735 75.1923 128.346C75.3474 125.986 76.9889 123.653 80.1141 121.842Z" fill="#FFB710"/>
<path d="M101.092 124.168L103.405 122.832L100.588 121.195L98.2256 122.559C96.8262 122.003 95.3333 121.719 93.8273 121.724C92.1374 121.735 90.6675 122.102 89.4177 122.825C88.2986 123.473 87.7112 124.194 87.6552 124.99C87.5993 125.786 88.2579 126.844 89.631 128.165L90.7861 129.411C91.0848 129.811 91.2 130.171 91.1275 130.494C91.0549 130.817 90.843 131.084 90.4703 131.296C90.0087 131.544 89.4961 131.682 88.9724 131.699C88.3725 131.735 87.7709 131.663 87.1972 131.484C86.9286 131.406 86.6716 131.292 86.4333 131.145C86.1201 130.973 85.8328 130.757 85.5798 130.505C85.1332 129.91 85.228 129.327 85.8643 128.754L82.6452 127.276C81.806 127.99 81.4338 128.733 81.5286 129.505C81.6083 130.154 82.0393 130.805 82.8088 131.46L80.3906 132.852L83.2071 134.489L85.6253 133.097C86.8259 133.581 88.1074 133.834 89.402 133.842C90.9582 133.855 92.3034 133.533 93.4376 132.878C94.5718 132.222 95.1782 131.471 95.2569 130.623C95.347 129.77 94.8415 128.797 93.7406 127.706L92.5343 126.488C92.0307 125.987 91.797 125.553 91.833 125.185C91.8691 124.817 92.118 124.499 92.5798 124.232C93.1591 123.917 93.8093 123.755 94.4689 123.761C95.1921 123.743 95.9111 123.876 96.5798 124.152C96.7757 124.234 96.9657 124.329 97.1488 124.437C97.5755 124.689 97.944 124.983 98.0919 125.199C98.3201 125.536 98.4078 125.949 98.3366 126.35C98.2692 126.776 98.0198 127.184 97.5883 127.573L100.852 129.138C101.989 128.219 102.52 127.306 102.443 126.398C102.379 125.631 101.928 124.888 101.092 124.168Z" fill="#FFB710"/>
<path d="M101.092 123.511L103.405 122.175L100.588 120.538L98.2256 121.902C96.826 121.346 95.3333 121.062 93.8273 121.065C92.1374 121.078 90.6675 121.445 89.4177 122.168C88.2986 122.814 87.7112 123.535 87.6552 124.333C87.5993 125.13 88.2579 126.189 89.631 127.508L90.7861 128.754C91.0848 129.152 91.2 129.514 91.1275 129.836C91.0549 130.159 90.843 130.427 90.4703 130.637C90.009 130.886 89.4962 131.024 88.9724 131.04C88.3723 131.077 87.7706 131.003 87.1972 130.822C86.9281 130.745 86.671 130.631 86.4333 130.484C86.1199 130.312 85.8325 130.097 85.5798 129.845C85.1332 129.25 85.228 128.666 85.8643 128.092L82.6452 126.616C81.806 127.33 81.4338 128.073 81.5286 128.845C81.6083 129.494 82.0393 130.145 82.8088 130.799L80.3906 132.192L83.2071 133.828L85.6253 132.435C86.8256 132.921 88.1072 133.174 89.402 133.182C90.9582 133.194 92.3034 132.873 93.4376 132.218C94.5718 131.562 95.1773 130.81 95.2541 129.962C95.3442 129.108 94.8387 128.136 93.7377 127.044L92.5315 125.828C92.0279 125.327 91.7941 124.892 91.8302 124.523C91.8643 124.156 92.1147 123.838 92.577 123.57C93.1565 123.256 93.8066 123.094 94.466 123.1C95.1893 123.083 95.9081 123.217 96.577 123.492C96.7728 123.574 96.9629 123.669 97.146 123.777C97.5727 124.028 97.9411 124.324 98.0891 124.539C98.3176 124.877 98.4054 125.29 98.3337 125.691C98.2664 126.116 98.017 126.524 97.5855 126.915L100.849 128.479C101.987 127.56 102.517 126.647 102.44 125.738C102.378 124.972 101.928 124.23 101.092 123.511Z" fill="#FFDE01"/>
<defs>
<linearGradient id="paint0_linear" x1="-71.7207" y1="94.5635" x2="-44.0055" y2="243.412" gradientUnits="userSpaceOnUse">
<stop stop-color="#2898F4"/>
<stop offset="0.15" stop-color="#2690F1"/>
<stop offset="0.37" stop-color="#207AEA"/>
<stop offset="0.66" stop-color="#1755DE"/>
<stop offset="0.98" stop-color="#0B23CD"/>
<stop offset="1" stop-color="#0A20CC"/>
</linearGradient>
<linearGradient id="paint1_linear" x1="-156.426" y1="150.46" x2="-108.266" y2="381.71" gradientUnits="userSpaceOnUse">
<stop stop-color="#009EFF"/>
<stop offset="1" stop-color="#0A20CC"/>
</linearGradient>
<linearGradient id="paint2_linear" x1="155.162" y1="-33.2628" x2="106.551" y2="181.685" gradientUnits="userSpaceOnUse">
<stop stop-color="#009EFF"/>
<stop offset="1" stop-color="#0A20CC"/>
</linearGradient>
<linearGradient id="paint3_linear" x1="50.4178" y1="125.3" x2="50.4178" y2="173.34" gradientUnits="userSpaceOnUse">
<stop stop-color="#2580D0"/>
<stop offset="1" stop-color="#0A208C"/>
</linearGradient>
<linearGradient id="paint4_linear" x1="67.4004" y1="156.012" x2="116.634" y2="156.012" gradientUnits="userSpaceOnUse">
<stop stop-color="#2580D1"/>
<stop offset="1" stop-color="#11379E"/>
</linearGradient>
</defs>
</svg>
