<svg width="180" height="182" viewBox="0 0 180 182" fill="none" xmlns="http://www.w3.org/2000/svg">
<g style="mix-blend-mode:color-dodge" opacity="0.3">
<path d="M146.817 137.698C147.264 137.945 147.815 137.898 148.214 137.58C148.612 137.261 148.78 136.733 148.638 136.243C148.496 135.753 148.072 135.397 147.565 135.341C147.058 135.284 146.567 135.54 146.321 135.987C145.987 136.597 146.209 137.362 146.817 137.698Z" fill="#1ED4FC"/>
</g>
<g style="mix-blend-mode:color-dodge" opacity="0.3">
<path d="M147.032 137.301C147.423 137.515 147.913 137.372 148.127 136.982C148.341 136.592 148.199 136.102 147.808 135.887C147.418 135.673 146.928 135.815 146.714 136.205C146.499 136.596 146.642 137.086 147.032 137.301Z" fill="#1ED4FC"/>
</g>
<g style="mix-blend-mode:color-dodge">
<path d="M147.165 137.067C147.355 137.172 147.59 137.152 147.76 137.016C147.931 136.881 148.002 136.656 147.942 136.446C147.881 136.237 147.701 136.085 147.484 136.061C147.268 136.037 147.059 136.146 146.954 136.336C146.812 136.596 146.906 136.922 147.165 137.067Z" fill="#1ED4FC"/>
</g>
<path d="M105.867 83.7219C104.122 82.7126 101.262 82.7126 99.5143 83.7219L5.68597 137.908C3.93848 138.919 3.93848 140.569 5.68597 141.577L67.8823 177.493C69.6286 178.503 72.4884 178.503 74.2335 177.493L168.064 123.307C169.809 122.299 169.809 120.647 168.064 119.639L105.867 83.7219Z" fill="#D9E8F9"/>
<path d="M4.37144 139.743V143.364C4.35152 144.043 4.78751 144.726 5.6806 145.239L67.8769 181.155C69.6232 182.166 72.483 182.166 74.2281 181.155L168.065 126.976C168.938 126.472 169.373 125.804 169.375 125.144V121.549C169.375 121.537 169.375 121.524 169.375 121.511C169.361 122.164 168.926 122.812 168.071 123.307L74.2352 177.495C72.49 178.503 69.6303 178.503 67.8839 177.495L5.68646 141.577C4.80275 141.067 4.36676 140.396 4.37613 139.723L4.37144 139.743Z" fill="#B4D1F4"/>
<path d="M102.923 3.72417C102.923 1.70676 101.494 0.881512 99.7476 1.89198L5.9111 56.0748C4.16595 57.083 2.73489 59.5599 2.73489 61.5761V135.979C2.73489 137.996 4.16478 138.823 5.90993 137.812L99.7476 83.6246C101.495 82.6165 102.924 80.1407 102.924 78.1233L102.923 3.72417Z" fill="#B4D1F4"/>
<path d="M8.45267 131.208C7.75532 131.611 7.18336 131.279 7.18336 130.473V61.9454C7.18336 61.1378 7.75766 60.1461 8.45502 59.744L97.2073 8.49287C97.9105 8.0908 98.4766 8.42019 98.4766 9.22669V77.7553C98.4766 78.563 97.9058 79.5535 97.2073 79.9568L8.45267 131.208Z" fill="url(#paint0_linear)"/>
<path opacity="0.5" d="M136.793 108.339C137.145 108.538 137.145 108.869 136.793 109.07L49.7284 159.346C49.3285 159.548 48.8567 159.548 48.4568 159.346L13.6884 139.442C13.3368 139.242 13.3368 138.911 13.6884 138.71L100.752 88.4354C101.152 88.2338 101.623 88.2338 102.023 88.4354L136.793 108.339Z" fill="#A0D1F9"/>
<path d="M29.6738 140.851C30.0254 141.053 30.0254 141.383 29.6738 141.584L25.8061 143.819C25.407 144.021 24.9358 144.021 24.5368 143.819L20.6691 141.584C20.3174 141.383 20.3174 141.053 20.6691 140.851L24.5368 138.616C24.9365 138.416 25.4075 138.416 25.8073 138.616L29.6738 140.851Z" fill="#E6F5FF"/>
<path d="M35.5918 137.434C35.9434 137.634 35.9434 137.963 35.5918 138.166L31.7241 140.402C31.3244 140.601 30.8544 140.601 30.4547 140.402L26.587 138.166C26.2354 137.963 26.2354 137.634 26.587 137.434L30.4547 135.199C30.8558 134.999 31.3277 134.999 31.7287 135.199L35.5918 137.434Z" fill="#E6F5FF"/>
<path d="M41.5097 134.015C41.8613 134.217 41.8613 134.545 41.5097 134.749L37.642 136.976C37.243 137.178 36.7718 137.178 36.3727 136.976L32.505 134.749C32.1534 134.545 32.1534 134.217 32.505 134.015L36.3727 131.781C36.7718 131.579 37.243 131.579 37.642 131.781L41.5097 134.015Z" fill="#E6F5FF"/>
<path d="M47.4297 130.597C47.7813 130.799 47.7813 131.128 47.4297 131.33L43.5619 133.563C43.1626 133.765 42.6908 133.765 42.2915 133.563L38.4237 131.33C38.0721 131.128 38.0721 130.799 38.4237 130.597L42.2915 128.363C42.6908 128.161 43.1626 128.161 43.5619 128.363L47.4297 130.597Z" fill="#E6F5FF"/>
<path d="M53.3476 127.178C53.6992 127.38 53.6992 127.711 53.3476 127.913L49.4799 130.14C49.0809 130.342 48.6096 130.342 48.2106 130.14L44.3429 127.913C43.9913 127.711 43.9913 127.38 44.3429 127.178L48.2106 124.945C48.6108 124.744 49.082 124.744 49.4823 124.945L53.3476 127.178Z" fill="#E6F5FF"/>
<path d="M59.2675 123.762C59.6192 123.963 59.6192 124.293 59.2675 124.494L55.3998 126.729C55.0009 126.929 54.5306 126.929 54.1317 126.729L50.264 124.494C49.9124 124.293 49.9124 123.963 50.264 123.762L54.1317 121.528C54.5304 121.326 55.0011 121.326 55.3998 121.528L59.2675 123.762Z" fill="#E6F5FF"/>
<path d="M65.1855 120.344C65.5371 120.545 65.5371 120.875 65.1855 121.077L61.3178 123.305C60.9188 123.506 60.4475 123.506 60.0485 123.305L56.1808 121.077C55.8292 120.875 55.8292 120.545 56.1808 120.344L60.0485 118.116C60.4475 117.915 60.9188 117.915 61.3178 118.116L65.1855 120.344Z" fill="#E6F5FF"/>
<path d="M71.1035 116.925C71.4551 117.127 71.4551 117.458 71.1035 117.658L67.2358 119.892C66.836 120.093 66.3651 120.093 65.9653 119.892L62.0976 117.658C61.746 117.458 61.746 117.127 62.0976 116.925L65.9653 114.692C66.3647 114.49 66.8364 114.49 67.2358 114.692L71.1035 116.925Z" fill="#E6F5FF"/>
<path d="M77.0234 113.507C77.375 113.709 77.375 114.039 77.0234 114.241L73.1557 116.474C72.7558 116.676 72.2839 116.676 71.884 116.474L68.0163 114.241C67.6647 114.039 67.6647 113.709 68.0163 113.507L71.884 111.273C72.2834 111.072 72.754 111.072 73.1533 111.273L77.0234 113.507Z" fill="#E6F5FF"/>
<path d="M82.9414 110.089C83.293 110.291 83.293 110.621 82.9414 110.823L79.0737 113.057C78.6734 113.257 78.2022 113.257 77.802 113.057L73.9343 110.823C73.5827 110.621 73.5827 110.291 73.9343 110.089L77.802 107.862C78.2017 107.659 78.674 107.659 79.0737 107.862L82.9414 110.089Z" fill="#E6F5FF"/>
<path d="M88.8613 106.673C89.2129 106.876 89.2129 107.205 88.8613 107.407L84.9936 109.642C84.5934 109.843 84.1221 109.843 83.7219 109.642L79.8542 107.407C79.5026 107.205 79.5026 106.876 79.8542 106.673L83.7219 104.44C84.1218 104.238 84.5937 104.238 84.9936 104.44L88.8613 106.673Z" fill="#E6F5FF"/>
<path d="M94.7793 103.252C95.1309 103.455 95.1309 103.785 94.7793 103.986L90.9116 106.213C90.5126 106.417 90.04 106.417 89.6411 106.213L85.7734 103.986C85.4217 103.785 85.4217 103.455 85.7734 103.252L89.6411 101.019C90.0404 100.817 90.5122 100.817 90.9116 101.019L94.7793 103.252Z" fill="#E6F5FF"/>
<path d="M100.699 99.8342C101.051 100.037 101.051 100.366 100.699 100.569L96.8315 102.802C96.4317 103.003 95.9608 103.003 95.561 102.802L91.6933 100.569C91.3417 100.366 91.3417 100.037 91.6933 99.8342L95.561 97.607C95.9604 97.4048 96.4321 97.4048 96.8315 97.607L100.699 99.8342Z" fill="#E6F5FF"/>
<path d="M24.0078 137.366C24.3594 137.567 24.3594 137.898 24.0078 138.097L19.9514 140.442C19.5523 140.643 19.0811 140.643 18.6821 140.442L16.9615 139.447C16.6099 139.247 16.6099 138.915 16.9615 138.715L21.0144 136.37C21.4143 136.169 21.8862 136.169 22.2861 136.37L24.0078 137.366Z" fill="#E6F5FF"/>
<path d="M30.1425 133.824C30.4942 134.025 30.4942 134.356 30.1425 134.557L26.0908 136.901C25.6918 137.103 25.2206 137.103 24.8215 136.901L23.101 135.911C22.7494 135.707 22.7494 135.376 23.101 135.177L27.1539 132.833C27.5528 132.629 28.0254 132.629 28.4243 132.833L30.1425 133.824Z" fill="#E6F5FF"/>
<path d="M36.2754 130.283C36.627 130.483 36.627 130.815 36.2754 131.018L32.2213 133.362C31.8219 133.563 31.3513 133.563 30.952 133.362L29.235 132.369C28.8833 132.167 28.8833 131.836 29.235 131.634L33.2867 129.29C33.6857 129.088 34.1569 129.088 34.556 129.29L36.2754 130.283Z" fill="#E6F5FF"/>
<path d="M42.4062 126.74C42.7578 126.942 42.7578 127.273 42.4062 127.475L38.351 129.82C37.9519 130.022 37.4807 130.022 37.0817 129.82L35.3611 128.828C35.0095 128.625 35.0095 128.296 35.3611 128.093L39.4152 125.749C39.8142 125.547 40.2855 125.547 40.6845 125.749L42.4062 126.74Z" fill="#E6F5FF"/>
<path d="M48.5351 123.202C48.8867 123.404 48.8867 123.733 48.5351 123.935L44.4846 126.28C44.0843 126.481 43.6121 126.481 43.2117 126.28L41.4924 125.287C41.1408 125.085 41.1408 124.757 41.4924 124.553L45.5464 122.209C45.9448 122.008 46.415 122.008 46.8134 122.209L48.5351 123.202Z" fill="#E6F5FF"/>
<path d="M54.6679 119.659C55.0195 119.862 55.0195 120.19 54.6679 120.392L50.6162 122.736C50.2171 122.941 49.7436 122.941 49.3446 122.736L47.6264 121.747C47.2747 121.544 47.2747 121.213 47.6264 121.011L51.6781 118.666C52.079 118.467 52.55 118.467 52.9509 118.666L54.6679 119.659Z" fill="#E6F5FF"/>
<path d="M60.7988 116.118C61.1504 116.319 61.1504 116.651 60.7988 116.851L56.7459 119.196C56.3465 119.398 55.8748 119.398 55.4754 119.196L53.7572 118.205C53.4056 118.001 53.4056 117.672 53.7572 117.47L57.8101 115.126C58.2092 114.924 58.6804 114.924 59.0794 115.126L60.7988 116.118Z" fill="#E6F5FF"/>
<path d="M66.9316 112.576C67.2832 112.779 67.2832 113.109 66.9316 113.311L62.8787 115.656C62.4797 115.858 62.0084 115.858 61.6094 115.656L59.8877 114.663C59.5361 114.461 59.5361 114.13 59.8877 113.929L63.9429 111.585C64.342 111.383 64.8132 111.383 65.2122 111.585L66.9316 112.576Z" fill="#E6F5FF"/>
<path d="M73.0644 109.035C73.416 109.238 73.416 109.567 73.0644 109.769L69.0115 112.113C68.6122 112.316 68.1404 112.316 67.741 112.113L66.0205 111.119C65.6689 110.919 65.6689 110.588 66.0205 110.388L70.0734 108.043C70.4734 107.84 70.9462 107.84 71.3462 108.043L73.0644 109.035Z" fill="#E6F5FF"/>
<path d="M79.1953 105.494C79.5469 105.697 79.5469 106.026 79.1953 106.229L75.1436 108.573C74.7438 108.774 74.2728 108.774 73.8731 108.573L72.1537 107.579C71.8021 107.379 71.8021 107.047 72.1537 106.844L76.2054 104.5C76.6057 104.298 77.0779 104.298 77.4782 104.5L79.1953 105.494Z" fill="#E6F5FF"/>
<path d="M85.33 101.951C85.6817 102.154 85.6817 102.485 85.33 102.686L81.276 105.031C80.8776 105.232 80.4074 105.232 80.009 105.031L78.2873 104.039C77.9357 103.837 77.9357 103.507 78.2873 103.305L82.339 100.961C82.7387 100.758 83.211 100.758 83.6107 100.961L85.33 101.951Z" fill="#E6F5FF"/>
<path d="M91.4609 98.4123C91.8125 98.6128 91.8125 98.9434 91.4609 99.145L87.4092 101.489C87.0092 101.692 86.5364 101.692 86.1364 101.489L84.4158 100.495C84.0642 100.295 84.0642 99.9655 84.4158 99.7616L88.4722 97.4171C88.8713 97.2153 89.3425 97.2153 89.7415 97.4171L91.4609 98.4123Z" fill="#E6F5FF"/>
<path d="M97.5937 94.871C97.9453 95.0726 97.9453 95.402 97.5937 95.6048L93.5397 97.9493C93.1406 98.1511 92.6694 98.1511 92.2703 97.9493L90.551 96.9564C90.1994 96.7548 90.1994 96.4242 90.551 96.2237L94.6027 93.8793C95.0026 93.6776 95.4744 93.6776 95.8743 93.8793L97.5937 94.871Z" fill="#E6F5FF"/>
<path d="M103.742 91.3168C104.094 91.5185 104.094 91.8479 103.742 92.0506L99.6916 94.3951C99.2916 94.5981 98.8188 94.5981 98.4188 94.3951L96.6982 93.4022C96.3466 93.2006 96.3466 92.8712 96.6982 92.6684L100.752 90.324C101.152 90.1213 101.624 90.1213 102.024 90.324L103.742 91.3168Z" fill="#E6F5FF"/>
<path d="M109.592 94.6976C109.943 94.9004 109.943 95.231 109.592 95.4326L102.765 99.376C102.365 99.5765 101.894 99.5765 101.494 99.376L97.6265 97.1417C97.2749 96.9401 97.2749 96.6095 97.6265 96.4079L104.455 92.4645C104.853 92.2635 105.323 92.2635 105.722 92.4645L109.592 94.6976Z" fill="#E6F5FF"/>
<path d="M53.4062 154.555C53.7578 154.756 53.7578 155.087 53.4062 155.289L49.5385 157.516C49.1391 157.718 48.6674 157.718 48.268 157.516L44.4003 155.289C44.0487 155.087 44.0487 154.756 44.4003 154.555L48.268 152.328C48.667 152.124 49.1396 152.124 49.5385 152.328L53.4062 154.555Z" fill="#E6F5FF"/>
<path d="M59.3242 151.137C59.6758 151.339 59.6758 151.669 59.3242 151.872L55.4565 154.099C55.0565 154.302 54.5836 154.302 54.1836 154.099L50.3159 151.872C49.9643 151.669 49.9643 151.339 50.3159 151.137L54.1836 148.903C54.5836 148.7 55.0565 148.7 55.4565 148.903L59.3242 151.137Z" fill="#E6F5FF"/>
<path d="M65.2422 147.716C65.5938 147.921 65.5938 148.252 65.2422 148.454L61.3744 150.681C60.9762 150.886 60.5034 150.886 60.1051 150.681L56.2374 148.454C55.8858 148.252 55.8858 147.921 56.2374 147.716L60.1051 145.489C60.5045 145.287 60.9762 145.287 61.3756 145.489L65.2422 147.716Z" fill="#E6F5FF"/>
<path d="M124.394 110.082C124.746 110.284 124.746 110.614 124.394 110.816L120.527 113.043C120.127 113.245 119.656 113.245 119.256 113.043L118.344 112.517C117.993 112.315 117.993 111.984 118.344 111.783L122.212 109.556C122.612 109.355 123.083 109.355 123.483 109.556L124.394 110.082Z" fill="#E6F5FF"/>
<path d="M121.482 115.241C121.834 115.441 121.834 115.772 121.482 115.972L117.615 118.207C117.215 118.409 116.743 118.409 116.343 118.207L115.432 117.68C115.081 117.479 115.081 117.147 115.432 116.947L119.3 114.719C119.699 114.517 120.171 114.517 120.571 114.719L121.482 115.241Z" fill="#E6F5FF"/>
<path d="M127.406 111.821C127.758 112.024 127.758 112.354 127.406 112.555L123.539 114.788C123.139 114.99 122.668 114.99 122.269 114.788L121.356 114.263C121.005 114.06 121.005 113.73 121.356 113.528L125.224 111.301C125.622 111.097 126.094 111.097 126.492 111.301L127.406 111.821Z" fill="#E6F5FF"/>
<path d="M133.32 108.403C133.672 108.605 133.672 108.934 133.32 109.137L129.453 111.37C129.053 111.572 128.581 111.572 128.182 111.37L127.27 110.844C126.919 110.642 126.919 110.31 127.27 110.11L131.138 107.875C131.537 107.672 132.009 107.672 132.408 107.875L133.32 108.403Z" fill="#E6F5FF"/>
<path d="M71.1621 144.302C71.5137 144.504 71.5137 144.835 71.1621 145.037L67.2944 147.264C66.895 147.464 66.4244 147.464 66.0251 147.264L62.1573 145.037C61.8057 144.835 61.8057 144.504 62.1573 144.304L66.0251 142.067C66.4248 141.867 66.8958 141.867 67.2955 142.067L71.1621 144.302Z" fill="#E6F5FF"/>
<path d="M103.74 125.488C104.092 125.69 104.092 126.022 103.74 126.222L73.2122 143.85C72.8132 144.052 72.342 144.052 71.9429 143.85L68.0752 141.616C67.7236 141.416 67.7236 141.085 68.0752 140.882L98.5997 123.255C99.0003 123.055 99.4719 123.055 99.8725 123.255L103.74 125.488Z" fill="#E6F5FF"/>
<path d="M109.644 122.08C109.996 122.281 109.996 122.612 109.644 122.813L105.777 125.048C105.377 125.248 104.905 125.248 104.505 125.048L100.637 122.813C100.286 122.612 100.286 122.281 100.637 122.08L104.505 119.852C104.904 119.648 105.377 119.648 105.776 119.852L109.644 122.08Z" fill="#E6F5FF"/>
<path d="M115.559 118.661C115.91 118.864 115.91 119.193 115.559 119.396L111.691 121.624C111.291 121.826 110.82 121.826 110.42 121.624L106.553 119.396C106.201 119.193 106.201 118.864 106.553 118.661L110.42 116.434C110.82 116.232 111.291 116.232 111.691 116.434L115.559 118.661Z" fill="#E6F5FF"/>
<path d="M44.4863 139.132C44.8379 139.335 44.8379 139.664 44.4863 139.867L40.6186 142.101C40.2188 142.302 39.7479 142.302 39.3481 142.101L35.4804 139.867C35.1288 139.664 35.1288 139.335 35.4804 139.132L39.3481 136.905C39.7471 136.701 40.2196 136.701 40.6186 136.905L44.4863 139.132Z" fill="#E6F5FF"/>
<path d="M38.5507 142.56C38.9024 142.76 38.9024 143.092 38.5507 143.293L31.7237 147.236C31.3243 147.436 30.8537 147.436 30.4543 147.236L26.5866 145.008C26.235 144.806 26.235 144.475 26.5866 144.273L33.4161 140.331C33.815 140.131 34.2853 140.131 34.6842 140.331L38.5507 142.56Z" fill="#E6F5FF"/>
<path d="M50.4043 135.715C50.7559 135.917 50.7559 136.246 50.4043 136.449L46.5366 138.676C46.1366 138.878 45.6648 138.878 45.2649 138.676L41.3972 136.449C41.0456 136.246 41.0456 135.917 41.3972 135.715L45.2649 133.481C45.6648 133.279 46.1366 133.279 46.5366 133.481L50.4043 135.715Z" fill="#E6F5FF"/>
<path d="M56.3183 132.297C56.6699 132.499 56.6699 132.828 56.3183 133.031L52.4506 135.264C52.0507 135.465 51.5789 135.465 51.179 135.264L47.3112 133.031C46.9596 132.828 46.9596 132.499 47.3112 132.297L51.179 130.063C51.5792 129.862 52.0504 129.862 52.4506 130.063L56.3183 132.297Z" fill="#E6F5FF"/>
<path d="M62.2422 128.879C62.5938 129.08 62.5938 129.411 62.2422 129.614L58.3744 131.848C57.9752 132.047 57.5056 132.047 57.1063 131.848L53.2386 129.614C52.887 129.411 52.887 129.08 53.2386 128.879L57.1063 126.651C57.505 126.45 57.9757 126.45 58.3744 126.651L62.2422 128.879Z" fill="#E6F5FF"/>
<path d="M68.1621 125.462C68.5137 125.663 68.5137 125.993 68.1621 126.197L64.2944 128.424C63.895 128.626 63.4232 128.626 63.0239 128.424L59.1562 126.197C58.8046 125.993 58.8046 125.663 59.1562 125.462L63.0239 123.234C63.4232 123.032 63.895 123.032 64.2944 123.234L68.1621 125.462Z" fill="#E6F5FF"/>
<path d="M74.08 122.042C74.4317 122.246 74.4317 122.576 74.08 122.777L70.2123 125.004C69.8126 125.207 69.3404 125.207 68.9407 125.004L65.073 122.777C64.7214 122.576 64.7214 122.246 65.073 122.042L68.9407 119.815C69.3404 119.612 69.8126 119.612 70.2123 119.815L74.08 122.042Z" fill="#E6F5FF"/>
<path d="M80 118.63C80.3516 118.833 80.3516 119.161 80 119.364L76.1323 121.591C75.7329 121.795 75.26 121.795 74.8606 121.591L70.9929 119.364C70.6413 119.161 70.6413 118.833 70.9929 118.63L74.8606 116.397C75.2596 116.195 75.7309 116.195 76.1299 116.397L80 118.63Z" fill="#E6F5FF"/>
<path d="M85.9179 115.207C86.2695 115.409 86.2695 115.739 85.9179 115.941L82.0502 118.175C81.65 118.375 81.1788 118.375 80.7786 118.175L76.9109 115.941C76.5592 115.739 76.5592 115.409 76.9109 115.207L80.7786 112.973C81.1782 112.773 81.6482 112.773 82.0479 112.973L85.9179 115.207Z" fill="#E6F5FF"/>
<path d="M91.8379 111.789C92.1895 111.991 92.1895 112.321 91.8379 112.522L87.9631 114.761C87.5637 114.964 87.092 114.964 86.6926 114.761L82.8249 112.528C82.4733 112.327 82.4733 111.997 82.8249 111.795L86.6926 109.567C87.0924 109.367 87.5633 109.367 87.9631 109.567L91.8379 111.789Z" fill="#E6F5FF"/>
<path d="M97.7539 108.369C98.1055 108.572 98.1055 108.903 97.7539 109.105L93.8862 111.333C93.4868 111.535 93.015 111.535 92.6157 111.333L88.748 109.105C88.3964 108.903 88.3964 108.572 88.748 108.369L92.6157 106.142C93.0154 105.942 93.4864 105.942 93.8862 106.142L97.7539 108.369Z" fill="#E6F5FF"/>
<path d="M103.676 104.952C104.027 105.154 104.027 105.484 103.676 105.686L99.808 107.913C99.4087 108.115 98.9369 108.115 98.5376 107.913L94.6698 105.686C94.3182 105.484 94.3182 105.154 94.6698 104.951L98.5376 102.724C98.9369 102.522 99.4087 102.522 99.808 102.724L103.676 104.952Z" fill="#E6F5FF"/>
<path d="M109.592 101.534C109.943 101.737 109.943 102.066 109.592 102.269L105.724 104.496C105.326 104.697 104.855 104.697 104.457 104.496L100.589 102.263C100.238 102.06 100.238 101.731 100.589 101.528L104.457 99.3009C104.855 99.0981 105.326 99.0981 105.724 99.3009L109.592 101.534Z" fill="#E6F5FF"/>
<path d="M115.506 98.1158C115.857 98.3186 115.857 98.6491 115.506 98.8508L111.638 101.084C111.239 101.286 110.768 101.286 110.369 101.084L106.501 98.8508C106.149 98.6491 106.149 98.3186 106.501 98.1158L110.369 95.8885C110.768 95.6867 111.239 95.6867 111.638 95.8885L115.506 98.1158Z" fill="#E6F5FF"/>
<path d="M51.7949 141.747C52.1465 141.948 52.1465 142.28 51.7949 142.48L47.9272 144.714C47.5273 144.916 47.0554 144.916 46.6555 144.714L42.7878 142.48C42.4362 142.28 42.4362 141.948 42.7878 141.747L46.6555 139.513C47.0554 139.311 47.5273 139.311 47.9272 139.513L51.7949 141.747Z" fill="#E6F5FF"/>
<path d="M45.8769 145.164C46.2285 145.366 46.2285 145.698 45.8769 145.897L37.6422 150.654C37.2432 150.856 36.7719 150.856 36.3729 150.654L32.5052 148.42C32.1536 148.218 32.1536 147.889 32.5052 147.686L40.7399 142.932C41.1389 142.731 41.6102 142.731 42.0092 142.932L45.8769 145.164Z" fill="#E6F5FF"/>
<path d="M57.7168 138.329C58.0684 138.531 58.0684 138.86 57.7168 139.063L53.8491 141.29C53.4497 141.492 52.9779 141.492 52.5786 141.29L48.7109 139.063C48.3592 138.86 48.3592 138.531 48.7109 138.329L52.5786 136.102C52.9779 135.9 53.4497 135.9 53.8491 136.102L57.7168 138.329Z" fill="#E6F5FF"/>
<path d="M63.6347 134.912C63.9863 135.114 63.9863 135.442 63.6347 135.645L59.767 137.872C59.3677 138.074 58.8959 138.074 58.4965 137.872L54.6288 135.645C54.2772 135.442 54.2772 135.114 54.6288 134.912L58.4965 132.678C58.8956 132.476 59.3668 132.476 59.7658 132.678L63.6347 134.912Z" fill="#E6F5FF"/>
<path d="M69.5527 131.494C69.9043 131.695 69.9043 132.025 69.5527 132.226L65.685 134.461C65.2856 134.663 64.8139 134.663 64.4145 134.461L60.5468 132.226C60.1952 132.025 60.1952 131.695 60.5468 131.494L64.4145 129.26C64.8143 129.059 65.2852 129.059 65.685 129.26L69.5527 131.494Z" fill="#E6F5FF"/>
<path d="M75.4707 128.077C75.8223 128.278 75.8223 128.607 75.4707 128.808L71.603 131.043C71.2033 131.245 70.731 131.245 70.3313 131.043L66.4636 128.808C66.112 128.607 66.112 128.278 66.4636 128.077L70.3313 125.843C70.731 125.64 71.2033 125.64 71.603 125.843L75.4707 128.077Z" fill="#E6F5FF"/>
<path d="M81.3906 124.656C81.7422 124.859 81.7422 125.187 81.3906 125.391L77.5229 127.618C77.1238 127.82 76.6526 127.82 76.2536 127.618L72.3859 125.391C72.0342 125.187 72.0342 124.859 72.3859 124.656L76.2536 122.429C76.6526 122.227 77.1238 122.227 77.5229 122.429L81.3906 124.656Z" fill="#E6F5FF"/>
<path d="M87.3066 121.239C87.6582 121.441 87.6582 121.773 87.3066 121.973L83.4389 124.2C83.0395 124.402 82.5678 124.402 82.1684 124.2L78.3007 121.973C77.9491 121.773 77.9491 121.441 78.3007 121.239L82.1684 119.005C82.5678 118.803 83.0395 118.803 83.4389 119.005L87.3066 121.239Z" fill="#E6F5FF"/>
<path d="M93.2285 117.822C93.5801 118.023 93.5801 118.353 93.2285 118.555L89.3608 120.789C88.961 120.99 88.4901 120.99 88.0903 120.789L84.2226 118.555C83.871 118.353 83.871 118.023 84.2226 117.82L88.0903 115.593C88.4897 115.39 88.9614 115.39 89.3608 115.593L93.2285 117.822Z" fill="#E6F5FF"/>
<path d="M99.1464 114.41C99.4981 114.61 99.4981 114.94 99.1464 115.142L95.2787 117.37C94.8791 117.572 94.4068 117.572 94.0071 117.37L90.1394 115.142C89.7878 114.94 89.7878 114.61 90.1394 114.41L94.0071 112.174C94.407 111.973 94.8788 111.973 95.2787 112.174L99.1464 114.41Z" fill="#E6F5FF"/>
<path d="M105.066 110.987C105.418 111.187 105.418 111.517 105.066 111.718L101.199 113.953C100.798 114.154 100.326 114.154 99.9258 113.953L96.0581 111.718C95.7065 111.517 95.7065 111.187 96.0581 110.987L99.9258 108.751C100.326 108.551 100.798 108.551 101.199 108.751L105.066 110.987Z" fill="#E6F5FF"/>
<path d="M110.984 107.567C111.336 107.768 111.336 108.1 110.984 108.3L107.117 110.534C106.717 110.735 106.245 110.735 105.845 110.534L101.977 108.299C101.626 108.098 101.626 107.767 101.977 107.566L105.845 105.331C106.245 105.13 106.716 105.13 107.117 105.331L110.984 107.567Z" fill="#E6F5FF"/>
<path d="M121.432 101.534C121.783 101.737 121.783 102.066 121.432 102.269L113.035 107.116C112.636 107.318 112.165 107.318 111.766 107.116L107.898 104.882C107.547 104.681 107.547 104.351 107.898 104.148L116.292 99.3009C116.692 99.0983 117.164 99.0983 117.564 99.3009L121.432 101.534Z" fill="#E6F5FF"/>
<path d="M60.7324 143.423C61.084 143.624 61.084 143.956 60.7324 144.154L56.8647 146.388C56.465 146.591 55.9927 146.591 55.593 146.388L51.7253 144.154C51.3737 143.956 51.3737 143.624 51.7253 143.423L55.593 141.188C55.9929 140.987 56.4648 140.987 56.8647 141.188L60.7324 143.423Z" fill="#E6F5FF"/>
<path d="M54.8027 146.848C55.1543 147.051 55.1543 147.38 54.8027 147.582L43.5617 154.072C43.1624 154.274 42.6906 154.274 42.2912 154.072L38.4235 151.845C38.0719 151.642 38.0719 151.313 38.4235 151.109L49.6657 144.62C50.065 144.417 50.538 144.417 50.9373 144.62L54.8027 146.848Z" fill="#E6F5FF"/>
<path d="M66.6523 140.004C67.0039 140.206 67.0039 140.538 66.6523 140.737L62.7846 142.971C62.3847 143.173 61.9128 143.173 61.5129 142.971L57.6452 140.737C57.2936 140.538 57.2936 140.206 57.6452 140.004L61.5129 137.77C61.9123 137.568 62.3841 137.568 62.7834 137.77L66.6523 140.004Z" fill="#E6F5FF"/>
<path d="M72.5683 136.586C72.9199 136.789 72.9199 137.117 72.5683 137.32L68.7006 139.547C68.3016 139.749 67.8303 139.749 67.4313 139.547L63.5636 137.32C63.212 137.117 63.212 136.789 63.5636 136.586L67.4313 134.359C67.8303 134.157 68.3016 134.157 68.7006 134.359L72.5683 136.586Z" fill="#E6F5FF"/>
<path d="M78.4882 133.165C78.8399 133.366 78.8399 133.696 78.4882 133.898L74.6205 136.125C74.2215 136.327 73.7503 136.327 73.3512 136.125L69.4835 133.898C69.1319 133.696 69.1319 133.366 69.4835 133.165L73.3512 130.931C73.7506 130.731 74.2212 130.731 74.6205 130.931L78.4882 133.165Z" fill="#E6F5FF"/>
<path d="M84.4082 129.751C84.7598 129.951 84.7598 130.283 84.4082 130.483L80.5405 132.719C80.1407 132.919 79.6697 132.919 79.27 132.719L75.4023 130.483C75.0507 130.283 75.0507 129.951 75.4023 129.751L79.27 127.515C79.6704 127.316 80.1412 127.316 80.5416 127.515L84.4082 129.751Z" fill="#E6F5FF"/>
<path d="M90.3281 126.333C90.6797 126.534 90.6797 126.865 90.3281 127.066L86.4604 129.294C86.0613 129.495 85.5901 129.495 85.1911 129.294L81.3234 127.066C80.9717 126.865 80.9717 126.534 81.3234 126.333L85.1911 124.105C85.5901 123.904 86.0613 123.904 86.4604 124.105L90.3281 126.333Z" fill="#E6F5FF"/>
<path d="M96.2461 122.914C96.5977 123.117 96.5977 123.447 96.2461 123.647L92.3783 125.874C91.9793 126.079 91.5058 126.079 91.1067 125.874L87.239 123.647C86.8874 123.447 86.8874 123.117 87.239 122.914L91.1067 120.68C91.5066 120.478 91.9784 120.478 92.3783 120.68L96.2461 122.914Z" fill="#E6F5FF"/>
<path d="M102.166 119.496C102.518 119.699 102.518 120.028 102.166 120.229L98.2983 122.463C97.8984 122.665 97.4265 122.665 97.0266 122.463L93.1589 120.229C92.8073 120.028 92.8073 119.699 93.1589 119.496L97.0266 117.262C97.4268 117.061 97.8981 117.061 98.2983 117.262L102.166 119.496Z" fill="#E6F5FF"/>
<path d="M108.082 116.078C108.434 116.281 108.434 116.61 108.082 116.812L104.214 119.046C103.815 119.246 103.344 119.246 102.945 119.046L99.0773 116.812C98.7257 116.61 98.7257 116.281 99.0773 116.078L102.945 113.845C103.344 113.643 103.815 113.643 104.214 113.845L108.082 116.078Z" fill="#E6F5FF"/>
<path d="M114.004 112.661C114.355 112.862 114.355 113.192 114.004 113.395L110.136 115.622C109.737 115.824 109.265 115.824 108.866 115.622L104.998 113.395C104.646 113.192 104.646 112.862 104.998 112.661L108.866 110.425C109.266 110.226 109.736 110.226 110.136 110.425L114.004 112.661Z" fill="#E6F5FF"/>
<path d="M127.344 104.951C127.695 105.154 127.695 105.484 127.344 105.686L116.048 112.211C115.648 112.411 115.177 112.411 114.777 112.211L110.909 109.976C110.558 109.774 110.558 109.444 110.909 109.243L122.204 102.719C122.604 102.517 123.075 102.517 123.475 102.719L127.344 104.951Z" fill="#E6F5FF"/>
<path opacity="0.5" d="M132.334 139.359C132.686 139.56 132.686 139.892 132.334 140.093L103.298 156.856C102.898 157.058 102.426 157.058 102.026 156.856L80.8969 144.656C80.5453 144.454 80.5453 144.125 80.8969 143.922L109.936 127.159C110.335 126.958 110.806 126.958 111.205 127.159L132.334 139.359Z" fill="#A0D1F9"/>
<path d="M2.7362 135.979V61.5762C2.7362 59.5599 4.16726 57.083 5.91241 56.0749L99.7478 1.89202C100.585 1.40671 101.346 1.34927 101.91 1.64116C101.902 1.63539 101.893 1.6303 101.883 1.62592L99.3868 0.188766C98.8207 -0.117186 98.0424 -0.0597468 97.2021 0.429073L3.36675 54.6143C1.61925 55.6212 0.189377 58.0993 0.189377 60.1167V134.516C0.189377 135.524 0.548012 136.231 1.127 136.564L3.65625 138.017C3.08664 137.679 2.7362 136.975 2.7362 135.979Z" fill="#D9E8F9"/>
<path opacity="0.3" d="M35.5093 98.0031C26.0922 92.5652 26.0923 74.932 35.5095 58.6182C44.9267 42.3044 60.1949 33.4877 69.612 38.9256C79.0291 44.3635 79.029 61.9967 69.6118 78.3105C60.1946 94.6243 44.9264 103.441 35.5093 98.0031Z" fill="#4CEAF5"/>
<path opacity="0.5" d="M36.0588 96.4914C27.2101 91.405 27.1771 74.8554 35.9852 59.5267C44.7933 44.1981 59.107 35.8951 67.9557 40.9814C76.8045 46.0678 76.8374 62.6174 68.0293 77.946C59.2213 93.2747 44.9076 101.578 36.0588 96.4914Z" fill="#4CEAF5"/>
<path d="M37.6711 94.2592C29.448 89.5108 29.4481 74.1132 37.6714 59.8677C45.8946 45.6222 59.227 37.9233 67.4501 42.6717C75.6732 47.4201 75.673 62.8177 67.4498 77.0631C59.2265 91.3086 45.8941 99.0076 37.6711 94.2592Z" fill="#4CEAF5"/>
<path d="M36.146 77.944C36.146 88.4132 43.4958 92.6567 52.5544 87.4227C61.6131 82.1886 68.9629 69.457 68.9629 58.9879C68.9629 48.5187 61.6142 44.2752 52.5544 49.5092C43.4946 54.7432 36.146 67.4748 36.146 77.944Z" fill="#1138A0"/>
<path d="M78.1567 67.7691C83.9981 64.3966 88.7542 69.184 88.7811 78.4634C88.8081 87.7427 84.0953 97.9986 78.2516 101.373C72.4078 104.748 67.6541 99.9586 67.6271 90.6792C67.6001 81.3998 72.3152 71.1416 78.1567 67.7691Z" fill="#0D181A"/>
<path d="M82.5559 70.3397C86.7752 67.9062 90.1999 71.3596 90.2187 78.053C90.2374 84.7464 86.8385 92.1432 82.6251 94.5756C78.4116 97.008 74.9811 93.5558 74.9623 86.8623C74.9436 80.1689 78.3436 72.7721 82.5559 70.3397Z" fill="#AEB5B9"/>
<path d="M85.107 103.884C85.107 103.884 89.3767 109.332 90.4456 110.074C91.5145 110.816 107.097 103.642 109.818 95.5778C112.54 87.5141 103.015 83.3069 97.4626 83.8016C91.9107 84.2963 85.2664 90.5748 84.7976 91.6907C84.3288 92.8067 85.107 103.884 85.107 103.884Z" fill="url(#paint1_linear)"/>
<path d="M87.0622 90.3321C87.0622 90.3321 95.032 87.5129 96.8569 87.2656C98.6817 87.0182 107.745 87.2656 109.475 89.4424C111.205 91.6192 112.044 87.5129 111.895 85.7311C111.746 83.9493 110.896 82.1265 109.832 81.0645C108.769 80.0024 100.468 76.7272 96.7584 75.7894C93.049 74.8517 89.6348 73.7615 87.0622 72.7229C84.4896 71.6843 73.2111 63.6182 73.2111 63.6182C73.2111 63.6182 60.7946 69.1077 63.2676 83.1112C63.2676 83.1112 76.031 89.1482 76.6745 90.3345C77.3179 91.5208 80.0382 98.1029 80.4332 99.1414C80.8282 100.18 87.0622 90.3321 87.0622 90.3321Z" fill="#F2A983"/>
<path d="M83.3918 95.8463L83.2453 96.0538C82.3077 96.2882 81.6314 96.4266 81.6314 96.4266L79.2873 96.3328C78.3298 94.0282 77.0792 91.0882 76.6702 90.3321C76.0314 89.1458 63.268 83.1112 63.268 83.1112C62.5343 78.9533 63.1145 75.5468 64.29 72.8108C69.8337 75.7777 85.7253 84.3432 87.2326 85.8308C89.0621 87.636 89.8825 88.827 89.5848 89.4647C89.2871 90.1024 88.8582 91.9697 88.8582 93.4596C88.8582 94.4654 85.5765 95.4665 83.434 96.0116L83.3918 95.8463Z" fill="#F2A983"/>
<path d="M83.3918 95.8463L83.2453 96.0538C82.3077 96.2882 81.6314 96.4266 81.6314 96.4266L79.2873 96.3328C78.3298 94.0282 77.0792 91.0882 76.6702 90.3321C76.0314 89.1458 63.268 83.1112 63.268 83.1112C62.5343 78.9533 63.1145 75.5468 64.29 72.8108C69.8337 75.7777 85.7253 84.3432 87.2326 85.8308C89.0621 87.636 89.8825 88.827 89.5848 89.4647C89.2871 90.1024 88.8582 91.9697 88.8582 93.4596C88.8582 94.4654 85.5765 95.4665 83.434 96.0116L83.3918 95.8463Z" fill="url(#paint2_linear)"/>
<path d="M106.768 99.5224C106.768 99.5224 105.362 95.7185 106.119 93.639C106.876 91.5595 109.475 89.3861 109.475 87.3312C109.475 85.2763 109.832 81.068 109.832 81.068C109.832 81.068 115.622 83.5473 116.005 88.0439C116.388 92.5406 115.706 100.866 115.624 101.623C115.542 102.38 111.778 102.316 111.778 102.316L106.768 99.5224Z" fill="url(#paint3_linear)"/>
<path d="M71.5534 61.0135C70.2887 60.2785 68.7323 60.3101 67.0504 61.2819C62.8381 63.7155 59.4381 71.1122 59.4568 77.8104C59.4685 81.8335 60.7121 84.6855 62.6213 85.7921L78.1168 94.8452C76.211 93.7375 74.9675 90.8854 74.9523 86.8623C74.9335 80.1701 78.3336 72.7721 82.5459 70.3339C84.2277 69.3633 85.783 69.3293 87.0488 70.0643C77.9081 64.7517 80.7058 66.3319 71.5534 61.0135Z" fill="url(#paint4_linear)"/>
<path d="M58.9665 52.5652C57.2084 51.5454 55.0554 51.5923 52.7242 52.938C46.8828 56.3117 42.1689 66.5675 42.1959 75.8469C42.2111 81.4244 43.9363 85.3795 46.5781 86.9151L72.01 101.75C69.3671 100.214 67.643 96.2602 67.6266 90.6827C67.6009 81.4021 72.3148 71.1451 78.1562 67.7726C80.4862 66.4269 82.6439 66.38 84.3984 67.3998C71.7123 60.0183 71.6526 59.9386 58.9665 52.5652Z" fill="#263133"/>
<path d="M96.1349 126.49C101.325 112.751 102.347 88.6583 102.347 88.6583L90.2232 81.6589L97.1019 77.6334L109.221 84.6352C109.221 84.6352 108.203 108.727 103.009 122.465C102.854 122.876 102.626 123.169 102.34 123.316L95.5806 127.273C95.8404 127.074 96.0337 126.801 96.1349 126.49Z" fill="#A2A9AD"/>
<path d="M103.492 121.134C103.336 121.588 103.176 122.031 103.013 122.464C102.858 122.874 102.63 123.167 102.344 123.315L95.581 127.273C95.8421 127.074 96.0367 126.801 96.1388 126.49C96.31 126.037 96.4764 125.572 96.6381 125.098L103.492 121.134Z" fill="#004ECD"/>
<path d="M83.0103 113.034C85.0871 107.564 90.1421 93.4866 90.2183 81.6588L102.342 88.6582C102.342 88.6582 101.324 112.751 96.13 126.49C95.6999 127.629 94.7083 127.856 93.4566 126.607L84.2421 117.463C82.6352 115.975 82.2824 114.953 83.0103 113.034Z" fill="#BCC3C7"/>
<path d="M83.0103 113.034C83.0993 112.799 83.1954 112.544 83.2939 112.279C83.4285 113.21 83.7767 114.097 84.3112 114.87C84.3112 114.87 92.8155 123.457 94.4059 124.809C95.0822 125.382 95.9062 125.337 96.6328 125.098C96.4711 125.567 96.3046 126.036 96.1335 126.49C95.7034 127.629 94.7118 127.856 93.4601 126.607L84.2456 117.463C82.6352 115.975 82.2824 114.953 83.0103 113.034Z" fill="#FF0077"/>
<g style="mix-blend-mode:multiply" opacity="0.2">
<path d="M90.2185 81.6589L97.0972 77.6334L109.221 84.6352C109.221 84.6352 108.884 92.5958 107.613 101.974C105.151 100.684 101.605 99.3033 101.605 99.3033C97.9821 95.8487 92.211 92.3355 89.3665 90.6932C89.8751 87.6525 90.1998 84.5871 90.2185 81.6589Z" fill="black"/>
</g>
<path d="M106.5 119.608C106.5 119.608 106.433 122.427 104.778 123.791C103.123 125.156 99.8358 125.759 98.5384 126.253C97.2409 126.746 95.6083 126.79 94.7808 126.253C93.9534 125.716 91.9433 123.572 91.2014 123.109C90.4596 122.646 88.4061 121.279 87.9198 120.556C87.4334 119.833 87.601 117.557 90.4982 117.508C93.3955 117.459 106.5 119.608 106.5 119.608Z" fill="url(#paint5_linear)"/>
<path d="M91.1566 111.286C90.4639 111.062 88.9426 110.771 87.6686 111.689C86.3946 112.607 86.2188 114.323 87.3674 115.455C88.516 116.588 91.1179 119.195 91.7602 119.833C92.4025 120.47 95.0712 122.941 96.8386 122.829C98.6061 122.716 103.257 120.786 104.891 120.555C106.524 120.324 110.616 119.272 110.996 116.834C111.375 114.396 111.555 113.028 111.555 113.028L91.1566 111.286Z" fill="url(#paint6_linear)"/>
<path d="M115.312 101.967C115.312 101.967 115.134 105.18 115.066 106.789C114.998 108.399 115.357 112.767 113.367 113.859C111.377 114.95 107.194 115.492 105.091 116.073C102.989 116.655 99.9249 117.281 99.0751 117.128C98.2254 116.976 97.398 116.793 95.9435 115.786C94.489 114.779 92.5059 112.763 91.8273 112.285C91.1487 111.806 88.8011 110.238 88.5819 109.186C88.3628 108.135 89.802 105.735 91.6433 105.559C93.4845 105.384 97.7554 106.544 97.7554 106.614C97.7554 106.685 115.312 101.967 115.312 101.967Z" fill="url(#paint7_linear)"/>
<path d="M91.6438 105.559C93.4838 105.38 97.7559 106.544 97.7559 106.614C97.7559 106.63 98.7017 106.283 100.154 105.74C100.361 107.011 100.401 108.304 100.271 109.586C99.9277 112.721 100.284 115.025 99.0358 117.121C98.1989 116.965 97.375 116.776 95.9428 115.786C94.4895 114.779 92.5052 112.763 91.8266 112.284C91.148 111.806 88.8004 110.238 88.5812 109.186C88.3621 108.135 89.8025 105.735 91.6438 105.559Z" fill="url(#paint8_linear)"/>
<path d="M101.607 100.746C101.607 100.746 99.2411 99.0419 96.8549 98.4405C94.4686 97.8392 91.4753 97.6586 90.4462 99.8472C89.4172 102.036 90.029 102.839 91.378 103.547C92.727 104.255 94.6901 105.523 95.3711 106.126C96.052 106.728 99.2611 108.693 101.006 108.834C102.751 108.974 104.856 107.73 106.781 107.209C108.705 106.687 112.014 106.147 113.638 105.163C115.263 104.18 115.58 102.678 115.625 101.628C115.625 101.628 113.143 97.9142 110.325 98.0478C107.507 98.1815 102.574 100.343 101.607 100.746Z" fill="url(#paint9_linear)"/>
<path d="M103.522 108.373C102.643 108.676 101.788 108.892 101.006 108.829C99.2607 108.688 96.0529 106.719 95.3708 106.121C94.6886 105.523 92.7255 104.251 91.3776 103.542C90.0298 102.833 89.4157 102.029 90.4459 99.8425C91.4761 97.6563 94.4683 97.838 96.8546 98.4358C99.2408 99.0336 101.607 100.742 101.607 100.742C101.607 100.742 104.862 104.582 103.522 108.373Z" fill="url(#paint10_linear)"/>
<path d="M96.1744 102.336C96.0572 102.038 95.933 101.614 94.9508 101.046C93.9687 100.479 92.2434 99.8272 91.702 100.366C91.1605 100.906 90.0377 102.771 90.5991 103.112C91.1605 103.453 94.7903 105.339 95.0305 105.379C95.2708 105.419 96.7159 103.674 96.1744 102.336Z" fill="#FFC6A8"/>
<path d="M94.3691 111.116C94.2683 109.993 92.9451 108.771 92.3239 108.247C91.7028 107.723 90.8003 107.586 89.9377 108.388C89.0751 109.19 88.5734 109.852 89.1559 110.333C89.7384 110.813 92.5044 112.78 92.8654 112.981C93.2264 113.181 94.5168 112.769 94.3691 111.116Z" fill="#FFC6A8"/>
<path d="M90.9785 116.209C90.9785 115.808 90.6785 114.685 89.8159 113.682C88.9532 112.678 88.5524 112.158 87.8914 112.579C87.2304 113 86.3068 114.22 86.6678 114.705C87.0288 115.19 89.5146 117.552 89.776 117.794C90.0374 118.035 90.9785 117.372 90.9785 116.209Z" fill="#FFC6A8"/>
<path d="M92.3441 120.982C92.1343 120.642 91.1205 119.759 90.6188 119.417C90.1172 119.076 89.0753 119.278 88.5537 119.879C88.0322 120.481 87.9126 120.7 88.2338 120.982C88.5549 121.265 90.9599 123.068 91.2014 123.108C91.4428 123.148 91.9233 122.607 92.139 122.125C92.3546 121.644 92.4929 121.224 92.3441 120.982Z" fill="#FFC6A8"/>
<g style="mix-blend-mode:multiply" opacity="0.2">
<path d="M101.007 108.829C99.2619 108.688 96.054 106.719 95.3719 106.121C94.6898 105.523 92.7266 104.251 91.3788 103.542C90.8291 103.254 90.4013 102.949 90.1575 102.541C91.9249 103.411 95.7669 105.312 96.8885 105.964C98.3594 106.82 100.584 107.674 103.021 107.4C105.457 107.125 106.964 106.505 109.904 105.578C111.83 104.97 114.006 103.888 115.504 102.581C115.276 103.666 114.598 104.603 113.639 105.16C112.015 106.143 108.707 106.684 106.782 107.205C104.856 107.727 102.751 108.969 101.007 108.829Z" fill="#DC8660"/>
</g>
<g style="mix-blend-mode:multiply" opacity="0.2">
<path d="M99.0756 117.125C98.2259 116.968 97.3984 116.789 95.9439 115.782C94.4894 114.776 92.5063 112.759 91.8277 112.281C91.1491 111.803 88.8015 110.234 88.5824 109.183C88.5238 108.903 88.5824 108.528 88.7371 108.128C90.3017 109.25 95.7341 113.143 96.6202 113.733C97.6563 114.424 100.913 114.078 104.567 113.733C107.238 113.48 112.185 112.161 114.971 110.21C114.827 111.748 114.435 113.274 113.367 113.862C111.375 114.958 107.194 115.495 105.092 116.077C102.989 116.658 99.9253 117.281 99.0756 117.125Z" fill="#DC8660"/>
</g>
<g style="mix-blend-mode:multiply" opacity="0.2">
<path d="M93.371 118.849C94.1915 119.603 96.9469 120.507 98.6803 120.243C100.192 120.008 108.43 117.687 111.125 115.997C111.085 116.261 111.042 116.539 110.996 116.834C110.616 119.272 106.524 120.324 104.891 120.555C103.258 120.786 98.6053 122.717 96.8391 122.829C95.0728 122.94 92.3983 120.47 91.7607 119.833C91.1231 119.195 88.5176 116.589 87.3679 115.455C86.4596 114.56 86.3799 113.297 87.0163 112.355C88.0488 113.424 92.6385 118.181 93.371 118.849Z" fill="#DC8660"/>
</g>
<g style="mix-blend-mode:multiply" opacity="0.2">
<path d="M87.9135 120.555C87.7131 120.258 87.6229 119.701 87.787 119.148C89.0844 120.08 93.5112 123.257 94.3808 123.866C95.4017 124.581 97.4785 124.77 99.0772 124.28C100.383 123.88 104.534 122.516 106.227 121.326C105.992 122.172 105.566 123.148 104.78 123.796C103.125 125.16 99.8378 125.764 98.5404 126.258C97.2429 126.751 95.6103 126.794 94.7828 126.258C93.9554 125.721 91.9453 123.577 91.2034 123.114C90.4615 122.651 88.4058 121.278 87.9135 120.555Z" fill="#DC8660"/>
</g>
<path d="M79.6416 98.5847C79.9932 101.203 81.3235 105.864 82.1826 106.854C83.0417 107.843 84.3239 108.465 86.0503 108.175C87.1778 107.985 90.1055 106.235 90.0176 101.895C89.9297 97.5555 88.971 94.306 88.862 93.455C88.862 93.455 87.4989 90.215 82.8225 90.0251C78.1461 89.8352 76.6787 90.3322 76.6787 90.3322L79.6416 98.5847Z" fill="url(#paint11_linear)"/>
<path d="M87.6823 100.76C87.8499 101.169 88.7501 103.88 88.5543 104.926C88.3586 105.973 87.4643 106.757 85.4367 107.259C83.4091 107.761 82.2535 106.866 82.0132 105.515C81.773 104.163 81.446 102.265 81.773 101.764C82.0999 101.262 83.2966 100.869 84.5425 100.608C85.7883 100.347 87.4433 100.179 87.6823 100.76Z" fill="#FFC6A8"/>
<g style="mix-blend-mode:screen" opacity="0.2">
<path d="M104.243 55.225L92.453 48.4132C92.8949 48.1189 93.3414 47.8399 93.7938 47.5926C95.5448 46.6161 97.2197 46.0359 98.7691 45.8202L110.582 52.6426C109.015 52.8512 107.318 53.435 105.542 54.4232C105.109 54.6694 104.675 54.9401 104.243 55.225Z" fill="white"/>
</g>
<path d="M77.4647 61.3183C77.6196 60.7197 77.8046 60.1293 78.0191 59.5494C78.1175 59.2997 78.2382 58.9633 78.3472 58.7194C78.8242 57.6574 78.8735 57.5472 79.102 57.1346C79.5105 56.3641 79.971 55.6223 80.4803 54.9144C80.8612 54.3634 81.6078 53.4913 81.6137 53.4854C81.9899 53.0716 82.5068 52.5347 82.9029 52.1444C83.1291 51.9205 83.4561 51.6485 83.6964 51.441C84.2712 50.9633 84.8739 50.5202 85.5013 50.1141C86.7167 49.385 86.9078 49.2724 87.55 48.9852C88.4203 48.5745 89.3266 48.2448 90.2574 48.0005C90.9354 47.8148 91.626 47.6785 92.3237 47.5926C92.8207 47.5328 93.4313 47.5 94.0056 47.4813C97.9108 45.3712 101.427 45.2224 103.99 46.7134L115.74 53.544C115.675 53.5065 115.607 53.4749 115.541 53.4397C118.353 54.9554 120.085 58.3713 120.026 63.2653C119.909 72.6702 113.24 83.9599 105.128 88.4812C101.107 90.7225 97.4877 90.8772 94.8729 89.3205C94.8928 89.3334 94.9116 89.3487 94.9315 89.3604L83.183 82.5251C80.6737 81.0668 79.0809 78.0448 78.9121 73.7838C78.6297 73.268 78.3261 72.6432 78.1175 72.1426C77.8843 71.6031 77.6885 71.0481 77.5315 70.4816C77.3266 69.7236 77.1626 68.955 77.0404 68.1793C76.983 67.7526 76.9302 67.1782 76.9033 66.7469C76.8822 66.4093 76.888 65.9568 76.881 65.618C76.8981 64.1662 77.0942 62.7221 77.4647 61.3183Z" fill="#FF0077"/>
<g style="mix-blend-mode:multiply" opacity="0.3">
<path d="M77.465 61.3182C77.6199 60.7196 77.8049 60.1292 78.0193 59.5493C78.1178 59.2996 78.2385 58.9632 78.3475 58.7194C78.8245 57.6573 78.8737 57.5471 79.1023 57.1345C79.5108 56.364 79.9713 55.6222 80.4806 54.9143C80.8615 54.3634 81.6081 53.4912 81.6139 53.4854C81.9902 53.0716 82.507 52.5347 82.9032 52.1443C83.1294 51.9204 83.4564 51.6485 83.6967 51.441C84.2715 50.9633 84.8742 50.5202 85.5016 50.114C86.717 49.3849 86.908 49.2724 87.5503 48.9852C88.4206 48.5744 89.3269 48.2448 90.2577 48.0005C90.9357 47.8148 91.6263 47.6784 92.324 47.5926C92.8209 47.5328 93.4316 47.5 94.0059 47.4812C93.9355 47.5187 93.8664 47.5527 93.7949 47.5926C85.6832 52.1139 79.0132 63.4024 78.8972 72.8084C78.8972 73.1425 78.8972 73.4672 78.9124 73.7872C78.63 73.2715 78.3264 72.6467 78.1178 72.1461C77.8845 71.6065 77.6887 71.0515 77.5318 70.4851C77.3268 69.727 77.1629 68.9585 77.0407 68.1828C76.9832 67.7561 76.9305 67.1817 76.9035 66.7503C76.8825 66.4127 76.8883 65.9603 76.8813 65.6215C76.8981 64.1685 77.0941 62.7232 77.465 61.3182Z" fill="url(#paint12_linear)"/>
</g>
<g style="mix-blend-mode:multiply" opacity="0.4">
<path d="M120.032 63.2654C120.149 53.8606 113.663 49.9019 105.551 54.4232C97.4395 58.9445 90.7683 70.2343 90.6534 79.6391C90.5386 89.0439 97.0211 93.0025 105.134 88.4812C113.247 83.9599 119.916 72.6702 120.032 63.2654Z" fill="#2E383B"/>
</g>
<g style="mix-blend-mode:multiply" opacity="0.3">
<path d="M92.8083 69.8193C91.4757 73.0863 90.6904 76.4693 90.6518 79.639C90.5932 84.4194 92.2387 87.7919 94.9355 89.3603L83.1824 82.5251C80.4867 80.9566 78.8388 77.5841 78.8963 72.8049C78.9349 69.6469 79.7167 66.2768 81.0387 63.0215L92.8083 69.8193Z" fill="url(#paint13_linear)"/>
</g>
<g style="mix-blend-mode:screen" opacity="0.2">
<path d="M104.243 55.225L92.453 48.4132C92.8949 48.1189 93.3414 47.8399 93.7938 47.5926C95.5448 46.6161 97.2197 46.0359 98.7691 45.8202L110.582 52.6426C109.015 52.8512 107.318 53.435 105.542 54.4232C105.109 54.6694 104.675 54.9401 104.243 55.225Z" fill="white"/>
</g>
<path d="M106.112 55.0093C107.617 54.1712 109.063 53.6273 110.421 53.3577C112.631 52.9204 114.606 53.2088 116.207 54.1395C118.56 55.5064 118.632 55.5462 122.381 57.6234C123.226 58.0923 124.373 58.6784 125.224 59.1356C126.844 59.9948 127.818 60.4532 130.419 61.677C130.439 61.6864 132.538 62.6675 135.076 63.6182C137.538 64.5396 139.269 64.9944 139.285 64.9991C139.924 65.1609 140.769 65.4012 141.415 65.5324C142.43 65.7399 143.792 65.9732 144.814 66.1268C146.067 66.281 147.328 66.3706 148.591 66.3952C149.564 66.4058 150.864 66.36 151.835 66.3132C152.421 66.2838 153.202 66.2041 153.784 66.1408C154.367 66.0775 155.119 65.9896 155.688 65.9005C156.883 65.7118 158.472 65.4316 159.662 65.2136C157.225 65.6954 154.631 66.6707 151.935 68.1747C137.531 76.2021 125.681 96.2472 125.482 112.946C125.441 116.337 125.883 119.328 126.734 121.876L126.559 121.361C125.776 119.064 125.234 117.754 125.228 117.741C124.821 116.771 124.258 115.486 123.821 114.533C123.587 114.021 123.235 113.351 122.96 112.857C122.684 112.362 122.314 111.684 122.005 111.205C121.481 110.384 120.753 109.313 120.185 108.525C119.833 108.042 119.332 107.427 118.95 106.97C118.568 106.512 118.041 105.903 117.624 105.47C116.81 104.629 115.693 103.537 114.838 102.738C114.315 102.249 113.577 101.645 113.034 101.179C113.02 101.167 111.53 99.9034 109.083 98.1381C106.685 96.4102 104.367 94.932 104.344 94.9179C103.539 94.408 102.469 93.7152 101.658 93.2194C99.8521 92.1198 97.4295 90.6733 95.607 89.5995C94.0036 88.6617 92.7753 87.0909 92.0616 84.9551C91.5928 83.5332 91.3419 81.8663 91.3583 79.9755C91.4779 70.6633 98.08 59.4861 106.112 55.0093Z" fill="url(#paint14_linear)"/>
<g style="mix-blend-mode:multiply" opacity="0.1">
<path d="M125.487 112.946C125.446 116.337 125.887 119.328 126.738 121.876L126.564 121.361C125.781 119.064 125.238 117.754 125.232 117.741C124.826 116.771 124.263 115.486 123.826 114.533C123.591 114.021 123.24 113.351 122.964 112.857C122.689 112.362 122.319 111.684 122.009 111.205C121.485 110.384 120.757 109.313 120.189 108.525C119.837 108.042 119.337 107.427 118.955 106.97C118.573 106.512 118.045 105.903 117.628 105.47C116.815 104.629 115.698 103.537 114.842 102.738C114.319 102.249 113.581 101.645 113.038 101.179C113.024 101.167 111.535 99.9034 109.087 98.138C106.689 96.4101 104.371 94.932 104.349 94.9179C103.544 94.408 102.474 93.7152 101.663 93.2193C99.8565 92.1198 97.4339 90.6732 95.6114 89.5995C94.0081 88.6617 92.7798 87.0909 92.066 84.9551C91.5972 83.5332 91.3464 81.8663 91.3628 79.9755C113.668 92.9392 120.216 99.0453 125.487 112.946Z" fill="black"/>
</g>
<g style="mix-blend-mode:screen" opacity="0.3">
<path d="M106.871 54.7233C106.748 54.7468 106.623 54.7749 106.498 54.803C107.73 54.1349 109.051 53.6481 110.422 53.3577C132.726 66.3214 141.921 68.7303 159.666 65.2136C157.747 65.5934 155.729 66.2839 153.641 67.292C137.885 69.6458 128.13 66.6648 106.871 54.7233Z" fill="white"/>
</g>
<path d="M151.939 68.1746C158.899 64.2946 165.183 63.9312 169.798 66.4749L172.088 67.755L172.213 67.8253L172.33 67.8886C177.136 70.6645 180.075 76.6581 179.972 85.1638C179.767 101.862 167.925 121.907 153.52 129.936C146.364 133.922 139.925 134.195 135.275 131.411L132.931 130.108C128.243 127.283 125.387 121.335 125.489 112.947C125.692 96.2472 137.54 76.2021 151.939 68.1746Z" fill="#FF0077"/>
<g style="mix-blend-mode:multiply" opacity="0.2">
<path d="M127.804 114.234C127.599 130.934 139.111 137.962 153.515 129.934C167.919 121.905 179.762 101.86 179.968 85.1614C180.174 68.463 168.66 61.4343 154.257 69.4629C139.854 77.4915 128.009 97.5355 127.804 114.234Z" fill="black"/>
</g>
<path d="M130.221 112.886C130.035 128.037 140.48 134.415 153.545 127.131C166.609 119.847 177.365 101.659 177.55 86.5106C177.735 71.3619 167.29 64.9814 154.227 72.2668C141.163 79.5523 130.406 97.7359 130.221 112.886Z" fill="url(#paint15_linear)"/>
<g style="mix-blend-mode:multiply" opacity="0.3">
<path d="M129.965 101.43C128.622 105.748 127.855 110.094 127.804 114.234C127.701 122.636 130.565 128.589 135.27 131.408L132.925 130.106C128.237 127.281 125.381 121.333 125.483 112.944C125.535 108.791 126.303 104.429 127.658 100.099L129.965 101.43Z" fill="url(#paint16_linear)"/>
</g>
<path d="M82.4797 65.189L90.4953 69.8146C90.582 69.5802 90.6758 69.3399 90.7695 69.1019L82.7434 64.4728C82.6532 64.7072 82.5653 64.9475 82.4797 65.189Z" fill="black"/>
<path d="M81.8676 67.1689L89.8222 71.7652C89.9019 71.5202 89.9781 71.2752 90.0566 71.0314L82.0786 66.4233C82.0005 66.675 81.9302 66.9235 81.8676 67.1689Z" fill="black"/>
<path d="M81.3985 69.2426L89.2746 73.7885C89.3355 73.5365 89.3918 73.2844 89.4668 73.0324L81.5567 68.4607C81.4923 68.7256 81.4431 68.9823 81.3985 69.2426Z" fill="black"/>
<path d="M81.1017 71.4159L88.85 75.8915C88.891 75.6277 88.9402 75.3639 88.9883 75.1002L81.1884 70.5977C81.1544 70.8731 81.1239 71.1439 81.1017 71.4159Z" fill="black"/>
<path d="M132.51 100.25C132.91 99.0523 133.357 97.8621 133.851 96.6797C135.811 91.9886 138.388 87.5797 141.512 83.5695C142.258 82.613 143.03 81.6885 143.828 80.796C150.552 85.9538 157.274 91.1062 163.996 96.2531L163.948 96.2202C164.851 96.8825 165.394 98.1298 165.37 99.8366C165.326 103.492 162.734 107.876 159.585 109.632C158.134 110.438 156.825 110.541 155.835 110.075C155.87 110.09 155.902 110.115 155.938 110.129C148.126 106.836 140.317 103.544 132.51 100.25Z" fill="#FF0077"/>
<g style="mix-blend-mode:multiply" opacity="0.3">
<path d="M153.959 106.196C154.004 102.546 156.595 98.1568 159.748 96.4008L141.514 83.5696C138.389 87.5798 135.812 91.9887 133.852 96.6798C133.359 97.8622 132.912 99.0524 132.511 100.25C140.318 103.54 148.128 106.833 155.941 110.129C154.705 109.61 153.936 108.231 153.959 106.196Z" fill="url(#paint17_linear)"/>
</g>
<g style="mix-blend-mode:multiply" opacity="0.3">
<path d="M159.747 96.4008C162.898 94.6424 165.416 96.1827 165.372 99.8366C165.329 103.49 162.735 107.876 159.584 109.632C156.432 111.388 153.915 109.851 153.958 106.197C154.001 102.543 156.595 98.1579 159.747 96.4008Z" fill="black"/>
</g>
<g style="mix-blend-mode:multiply" opacity="0.1">
<path d="M132.511 100.25C140.318 103.54 148.128 106.833 155.941 110.129C154.71 109.61 153.941 108.231 153.964 106.196L133.857 96.6798C133.36 97.863 132.911 99.0532 132.511 100.25Z" fill="black"/>
</g>
<path d="M159.732 97.5296C162.345 96.0726 164.432 97.3479 164.396 100.377C164.36 103.406 162.21 107.041 159.598 108.497C156.985 109.953 154.898 108.678 154.934 105.65C154.971 102.622 157.113 98.9891 159.732 97.5296Z" fill="#BBC2C6"/>
<path d="M159.706 99.7382C161.268 98.8672 162.518 99.6292 162.494 101.44C162.469 103.251 161.187 105.426 159.626 106.296C158.065 107.165 156.813 106.403 156.838 104.592C156.862 102.781 158.143 100.609 159.706 99.7382Z" fill="#414E52"/>
<g style="mix-blend-mode:multiply" opacity="0.5">
<path d="M130.221 112.886C130.035 128.037 140.48 134.415 153.545 127.131C166.609 119.847 177.365 101.659 177.55 86.5106C177.735 71.3619 167.29 64.9814 154.227 72.2668C141.163 79.5523 130.406 97.7359 130.221 112.886Z" fill="url(#paint18_linear)"/>
</g>
<defs>
<linearGradient id="paint0_linear" x1="82.425" y1="14.177" x2="128.521" y2="111.291" gradientUnits="userSpaceOnUse">
<stop stop-color="#2580D3"/>
<stop offset="1" stop-color="#0A208F"/>
</linearGradient>
<linearGradient id="paint1_linear" x1="110.296" y1="110.122" x2="84.6558" y2="110.122" gradientUnits="userSpaceOnUse">
<stop offset="0.04" stop-color="#F2A983"/>
<stop offset="0.38" stop-color="#EA9B75"/>
<stop offset="1" stop-color="#D57751"/>
</linearGradient>
<linearGradient id="paint2_linear" x1="85.1318" y1="84.2717" x2="79.152" y2="97.8407" gradientUnits="userSpaceOnUse">
<stop offset="0.04" stop-color="#F2A983"/>
<stop offset="0.38" stop-color="#EA9B75"/>
<stop offset="1" stop-color="#D57751"/>
</linearGradient>
<linearGradient id="paint3_linear" x1="112.701" y1="103.3" x2="101.42" y2="104.533" gradientUnits="userSpaceOnUse">
<stop offset="0.04" stop-color="#F2A983"/>
<stop offset="0.38" stop-color="#EA9B75"/>
<stop offset="1" stop-color="#D57751"/>
</linearGradient>
<linearGradient id="paint4_linear" x1="77.0781" y1="88.8276" x2="62.9983" y2="104.946" gradientUnits="userSpaceOnUse">
<stop stop-color="#DFE6EA"/>
<stop offset="1" stop-color="#AEB5B9"/>
</linearGradient>
<linearGradient id="paint5_linear" x1="107.963" y1="115.813" x2="107.909" y2="126.29" gradientUnits="userSpaceOnUse">
<stop offset="0.04" stop-color="#F2A983"/>
<stop offset="0.19" stop-color="#E99A74"/>
<stop offset="0.45" stop-color="#DE8761"/>
<stop offset="0.72" stop-color="#D77B55"/>
<stop offset="1" stop-color="#D57751"/>
</linearGradient>
<linearGradient id="paint6_linear" x1="117.351" y1="105.837" x2="117.208" y2="122.811" gradientUnits="userSpaceOnUse">
<stop offset="0.04" stop-color="#F2A983"/>
<stop offset="0.38" stop-color="#EA9B75"/>
<stop offset="1" stop-color="#D57751"/>
</linearGradient>
<linearGradient id="paint7_linear" x1="111.011" y1="106.793" x2="111.693" y2="116.742" gradientUnits="userSpaceOnUse">
<stop offset="0.04" stop-color="#F2A983"/>
<stop offset="0.38" stop-color="#EA9B75"/>
<stop offset="1" stop-color="#D57751"/>
</linearGradient>
<linearGradient id="paint8_linear" x1="101.963" y1="109.202" x2="96.7115" y2="116.989" gradientUnits="userSpaceOnUse">
<stop offset="0.04" stop-color="#F2A983"/>
<stop offset="0.38" stop-color="#EA9B75"/>
<stop offset="1" stop-color="#D57751"/>
</linearGradient>
<linearGradient id="paint9_linear" x1="112.415" y1="100.767" x2="112.669" y2="109.003" gradientUnits="userSpaceOnUse">
<stop offset="0.04" stop-color="#F2A983"/>
<stop offset="0.38" stop-color="#EA9B75"/>
<stop offset="1" stop-color="#D57751"/>
</linearGradient>
<linearGradient id="paint10_linear" x1="102.697" y1="101.073" x2="101.374" y2="108.335" gradientUnits="userSpaceOnUse">
<stop offset="0.04" stop-color="#F2A983"/>
<stop offset="0.38" stop-color="#EA9B75"/>
<stop offset="1" stop-color="#D57751"/>
</linearGradient>
<linearGradient id="paint11_linear" x1="89.4854" y1="88.8501" x2="92.4195" y2="106.819" gradientUnits="userSpaceOnUse">
<stop offset="0.04" stop-color="#F2A983"/>
<stop offset="0.38" stop-color="#EA9B75"/>
<stop offset="1" stop-color="#D57751"/>
</linearGradient>
<linearGradient id="paint12_linear" x1="90.8568" y1="58.6932" x2="81.6001" y2="71.8708" gradientUnits="userSpaceOnUse">
<stop stop-color="white"/>
<stop offset="1"/>
</linearGradient>
<linearGradient id="paint13_linear" x1="96.6107" y1="75.4118" x2="84.3061" y2="83.457" gradientUnits="userSpaceOnUse">
<stop stop-color="white"/>
<stop offset="1"/>
</linearGradient>
<linearGradient id="paint14_linear" x1="149.633" y1="72.5026" x2="127.695" y2="112.26" gradientUnits="userSpaceOnUse">
<stop stop-color="#D4DBDF"/>
<stop offset="0.59" stop-color="#C0CBD2"/>
<stop offset="1" stop-color="#AFBEC7"/>
</linearGradient>
<linearGradient id="paint15_linear" x1="115.856" y1="108.732" x2="158.159" y2="62.9036" gradientUnits="userSpaceOnUse">
<stop stop-color="#D4DBDF"/>
<stop offset="0.29" stop-color="#C0CBD1"/>
<stop offset="0.89" stop-color="#8BA0AD"/>
<stop offset="1" stop-color="#8198A6"/>
</linearGradient>
<linearGradient id="paint16_linear" x1="136.704" y1="105.255" x2="122.356" y2="117.794" gradientUnits="userSpaceOnUse">
<stop stop-color="white"/>
<stop offset="1"/>
</linearGradient>
<linearGradient id="paint17_linear" x1="156.84" y1="94.5456" x2="151.364" y2="108.693" gradientUnits="userSpaceOnUse">
<stop stop-color="white"/>
<stop offset="1"/>
</linearGradient>
<linearGradient id="paint18_linear" x1="155.519" y1="128.479" x2="117.701" y2="114.257" gradientUnits="userSpaceOnUse">
<stop offset="0.14" stop-color="white"/>
<stop offset="1"/>
</linearGradient>
</defs>
</svg>
