<svg width="24" height="24" viewBox="0 0 24 24" fill="none" xmlns="http://www.w3.org/2000/svg">
<path fill-rule="evenodd" clip-rule="evenodd" d="M18.3643 12.707L19.7783 14.121L19.7793 14.122C21.5477 12.3536 22.2384 9.77597 21.5911 7.3602C20.9438 4.94443 19.0569 3.0575 16.6411 2.4102C14.2253 1.7629 11.6477 2.45356 9.87926 4.22203L9.52526 4.57503C8.21235 5.8878 7.47475 7.66839 7.47475 9.52503C7.47475 11.3817 8.21235 13.1623 9.52526 14.475L10.9393 15.889L12.3543 14.475L10.9393 13.06C8.98735 11.1075 8.98735 7.94252 10.9393 5.99003L11.2933 5.63603C12.5545 4.36368 14.4001 3.86337 16.1313 4.32453C17.8625 4.78569 19.2146 6.13782 19.6758 7.869C20.1369 9.60017 19.6366 11.4458 18.3643 12.707ZM14.4753 9.52503L13.0613 8.11103L11.6463 9.52503L13.0613 10.94C15.0132 12.8925 15.0132 16.0575 13.0613 18.01L12.7073 18.364C11.446 19.6364 9.6004 20.1367 7.86923 19.6755C6.13805 19.2144 4.78592 17.8622 4.32476 16.1311C3.8636 14.3999 4.36391 12.5543 5.63626 11.293L4.22126 9.87803C1.48745 12.6118 1.48745 17.0442 4.22126 19.778C6.95506 22.5118 11.3874 22.5118 14.1213 19.778L14.4753 19.425C15.7882 18.1122 16.5258 16.3317 16.5258 14.475C16.5258 12.6184 15.7882 10.8378 14.4753 9.52503Z" fill="#3F8EFA"/>
</svg>
