<svg width="100" height="100" viewBox="0 0 100 100" fill="none" xmlns="http://www.w3.org/2000/svg">
<path fill-rule="evenodd" clip-rule="evenodd" d="M91.785 38.0533L93.1526 24.9542L81.1178 19.599C80.7246 19.4245 80.4103 19.1101 80.2357 18.7178L74.8822 6.68299L61.7806 8.0523C61.3552 8.09466 60.929 7.97943 60.5833 7.72946L49.9178 0L39.2523 7.72946C38.9057 7.97943 38.4795 8.09466 38.055 8.0523L24.9525 6.68299L19.599 18.7178C19.4253 19.1101 19.111 19.4245 18.7178 19.5973L6.68299 24.9542L8.0506 38.0533C8.09466 38.4787 7.98027 38.9057 7.72946 39.2523L0 49.9178L7.72946 60.5833C7.98027 60.9299 8.09466 61.3569 8.0506 61.7823L6.68299 74.8805L18.7178 80.2357C19.1101 80.4103 19.4245 80.7246 19.599 81.1178L24.9525 93.1526L38.055 91.7833C38.1135 91.7833 38.1745 91.774 38.2279 91.774C38.5939 91.774 38.9498 91.8901 39.2455 92.1062L49.9178 99.8348L60.5833 92.1062C60.929 91.8545 61.3552 91.7393 61.7806 91.7833L74.8822 93.1526L80.2357 81.1178C80.4103 80.7246 80.7246 80.4111 81.1178 80.2374L93.1526 74.8805L91.785 61.7823C91.7401 61.3569 91.8545 60.9299 92.1062 60.5833L99.8348 49.9178L92.1062 39.2523C91.8545 38.9057 91.7401 38.4787 91.785 38.0533Z" fill="#FFF9E4"/>
<path fill-rule="evenodd" clip-rule="evenodd" d="M32.9378 42.5C34.1883 44.6658 36.4991 46 39 46C42.866 46 46 42.866 46 39C46 35.134 42.866 32 39 32C36.4991 32 34.1883 33.3342 32.9378 35.5C31.6874 37.6658 31.6874 40.3342 32.9378 42.5ZM61 68C57.134 68 54 64.866 54 61C54 57.134 57.134 54 61 54C64.866 54 68 57.134 68 61C68 64.866 64.866 68 61 68ZM61 64C62.6569 64 64 62.6569 64 61C64 59.3431 62.6569 58 61 58C59.3431 58 58 59.3431 58 61C58 62.6569 59.3431 64 61 64ZM39 42C40.6569 42 42 40.6569 42 39C42 37.3431 40.6569 36 39 36C37.3431 36 36 37.3431 36 39C36 40.6569 37.3431 42 39 42ZM66.97 35.858L64.142 33.03H64.14L33.032 64.142L35.86 66.97L66.97 35.858Z" fill="#EABD74"/>
</svg>
